<?xml version="1.0" encoding="utf-8"?>
<!-- Generator: Adobe Illustrator 25.0.0, SVG Export Plug-In . SVG Version: 6.00 Build 0)  -->
<svg version="1.1" id="Logo" xmlns="http://www.w3.org/2000/svg" xmlns:xlink="http://www.w3.org/1999/xlink" x="0px" y="0px"
	 viewBox="0 0 340.157 116.589" style="enable-background:new 0 0 340.157 116.589;" xml:space="preserve">
<g>
	<path style="fill:#00B4F0;" d="M162.511,42.115c-1.087-0.943-2.251-1.394-4.447-1.721l-2.591-0.399
		c-1.258-0.204-2.405-0.667-3.068-1.239c-0.648-0.559-0.977-1.412-0.977-2.536c0-2.552,1.814-4.138,4.736-4.138
		c2.266,0,3.816,0.568,5.35,1.962l0.176,0.16l1.983-1.982l-0.195-0.176c-2.092-1.887-4.183-2.657-7.214-2.657
		c-4.756,0-7.829,2.72-7.829,6.931c0,1.948,0.632,3.499,1.881,4.609c1.06,0.922,2.566,1.546,4.48,1.854l2.759,0.432
		c1.733,0.267,2.259,0.457,2.965,1.073c0.684,0.593,1.045,1.55,1.045,2.768c0,2.591-1.994,4.138-5.334,4.138
		c-2.735,0-4.435-0.683-6.272-2.52l-0.177-0.177l-2.082,2.083l0.177,0.177c2.271,2.271,4.672,3.197,8.287,3.197
		c5.119,0,8.427-2.734,8.427-6.964C164.591,44.953,163.871,43.266,162.511,42.115z"/>
	<path style="fill:#00B4F0;" d="M171.901,31.882h-2.894v5.119h-2.06v2.328h2.06v9.788c0,2.817,1.742,4.638,4.439,4.638h1.945v-2.561
		h-1.514c-1.33,0-1.976-0.701-1.976-2.143v-9.722h3.49v-2.328h-3.49V31.882z"/>
	<path style="fill:#00B4F0;" d="M185.281,36.702c-2.49,0-4.358,0.422-5.981,2.523l-0.141,0.182l2.008,1.844l0.164-0.232
		c0.927-1.312,1.916-1.755,3.917-1.755c2.76,0,3.938,0.999,3.938,3.34v1.311h-4.669c-3.695,0-5.901,1.858-5.901,4.971
		c0,1.396,0.475,2.672,1.3,3.498c1.082,1.116,2.472,1.571,4.801,1.571c2.051,0,3.256-0.371,4.469-1.434v1.235h2.894V42.403
		C192.081,38.673,189.729,36.702,185.281,36.702z M189.187,46.21v1.511c0,1.302-0.246,2.167-0.754,2.646
		c-0.981,0.95-2.158,1.027-3.483,1.027c-2.425,0-3.506-0.784-3.506-2.542c0-1.777,1.114-2.641,3.406-2.641H189.187z"/>
	<path style="fill:#00B4F0;" d="M206.941,38.375c-1.394-1.457-2.918-1.673-4.371-1.673c-1.667,0-3.224,0.562-4.165,1.502
		c-1.853,1.853-2.067,4.953-2.067,7.124c0,2.171,0.214,5.271,2.067,7.124c0.941,0.94,2.498,1.502,4.165,1.502
		c1.393,0,2.982-0.219,4.404-1.729v1.531h2.86V29.589h-2.893V38.375z M203.103,39.329c3.374,0,3.838,2.883,3.838,5.999
		s-0.465,5.999-3.838,5.999c-3.412,0-3.872-3.033-3.872-5.999S199.69,39.329,203.103,39.329z"/>
	<path style="fill:#00B4F0;" d="M218.199,31.882h-2.894v5.119h-2.06v2.328h2.06v9.788c0,2.817,1.742,4.638,4.439,4.638h1.945v-2.561
		h-1.514c-1.33,0-1.976-0.701-1.976-2.143v-9.722h3.49v-2.328h-3.49V31.882z"/>
	<polygon style="fill:#00B4F0;" points="240.979,49.427 236.857,36.901 234.434,36.901 230.344,49.427 226.761,36.901 
		223.638,36.901 228.981,53.755 231.571,53.755 235.647,41.592 239.754,53.755 242.345,53.755 247.654,36.901 244.531,36.901 	"/>
	<path style="fill:#00B4F0;" d="M256.328,36.702c-4.36,0-6.964,3.224-6.964,8.625c0,5.563,2.627,8.627,7.397,8.627
		c2.964,0,4.555-0.995,6.16-2.6l0.189-0.188l-2.006-1.759l-0.166,0.166c-1.337,1.336-2.374,1.787-4.111,1.787
		c-2.875,0-4.491-1.826-4.567-5.15h11.033v-1.347C263.292,39.829,260.624,36.702,256.328,36.702z M260.386,43.915h-8.116
		c0.063-1.137,0.141-1.582,0.466-2.378c0.6-1.423,1.976-2.307,3.591-2.307c1.614,0,2.99,0.883,3.592,2.306
		C260.242,42.328,260.323,42.796,260.386,43.915z"/>
	<path style="fill:#00B4F0;" d="M274.969,36.702c-1.731,0-3.326,0.647-4.337,1.726v-1.527h-2.893v16.854h2.893V43.466
		c0-2.436,1.51-4.137,3.673-4.137c1.182,0,1.776,0.252,2.648,1.123l0.179,0.178l2.112-2.151l-0.175-0.175
		C277.946,37.181,276.72,36.702,274.969,36.702z"/>
	<polygon style="fill:#00B4F0;" points="295.306,36.901 291.644,36.901 284.629,44.99 284.629,29.589 281.736,29.589 
		281.736,53.755 284.629,53.755 284.629,48.878 287.536,45.548 292.616,53.755 296.172,53.755 289.511,43.425 	"/>
	<path style="fill:#00B4F0;" d="M311.811,44.862c0-5.033-2.668-8.16-6.964-8.16c-4.361,0-6.964,3.224-6.964,8.625
		c0,5.563,2.626,8.627,7.396,8.627c2.966,0,4.556-0.995,6.161-2.6l0.189-0.189l-2.006-1.759l-0.166,0.166
		c-1.337,1.336-2.374,1.787-4.111,1.787c-2.876,0-4.491-1.826-4.567-5.15h11.032V44.862z M308.905,43.915h-8.115
		c0.063-1.136,0.141-1.581,0.466-2.378c0.6-1.423,1.976-2.307,3.592-2.307c1.615,0,2.99,0.883,3.591,2.306
		C308.762,42.329,308.842,42.797,308.905,43.915z"/>
</g>
<polygon style="fill:#00B4F0;" points="166.236,86.749 166.236,72.955 161.716,81.93 158.591,81.93 154.037,72.955 154.037,86.749 
	149.417,86.749 149.417,63.083 153.97,63.083 160.153,75.88 166.303,63.083 170.856,63.083 170.856,86.749 "/>
<path style="fill:#00B4F0;" d="M184.852,62.451h3.69v4.155h-3.69V62.451z M177.507,62.451h3.69v4.155h-3.69V62.451z M186.016,86.749
	v-1.595c-1.13,1.196-2.725,1.794-4.321,1.794c-1.729,0-3.125-0.565-4.088-1.528c-1.396-1.396-1.762-3.026-1.762-4.92V69.431h4.321
	v10.47c0,2.361,1.496,3.158,2.858,3.158c1.364,0,2.892-0.797,2.892-3.158v-10.47h4.321v17.318H186.016z"/>
<path style="fill:#00B4F0;" d="M205.166,86.749v-10.47c0-2.361-1.496-3.159-2.859-3.159c-1.362,0-2.892,0.798-2.892,3.159v10.47
	h-4.321V69.431h4.221v1.596c1.131-1.197,2.727-1.795,4.322-1.795c1.728,0,3.124,0.565,4.089,1.529
	c1.396,1.396,1.761,3.025,1.761,4.919v11.069H205.166z"/>
<path style="fill:#00B4F0;" d="M219.826,86.948c-2.725,0-5.185-0.299-7.379-2.493l2.825-2.825c1.43,1.429,3.291,1.629,4.621,1.629
	c1.496,0,3.057-0.499,3.057-1.795c0-0.864-0.464-1.463-1.828-1.596l-2.725-0.266c-3.125-0.299-5.053-1.661-5.053-4.852
	c0-3.59,3.158-5.518,6.682-5.518c2.692,0,4.953,0.465,6.614,2.028l-2.659,2.692c-0.997-0.897-2.526-1.164-4.022-1.164
	c-1.728,0-2.459,0.798-2.459,1.663c0,0.631,0.265,1.362,1.795,1.495l2.725,0.266c3.423,0.333,5.152,2.161,5.152,5.085
	C227.172,85.121,223.915,86.948,219.826,86.948"/>
<path style="fill:#00B4F0;" d="M235.883,86.749c-3.523,0-5.019-2.493-5.019-4.953V73.22h-1.829v-3.29h1.829v-5.119h4.321v5.119
	h3.058v3.29h-3.058v8.311c0,0.997,0.466,1.561,1.496,1.561h1.562v3.657H235.883z"/>
<path style="fill:#00B4F0;" d="M251.642,74.617c-0.466-1.031-1.429-1.795-2.892-1.795c-1.463,0-2.426,0.764-2.892,1.795
	c-0.266,0.631-0.365,1.097-0.398,1.861h6.581C252.008,75.714,251.908,75.248,251.642,74.617 M245.46,79.437
	c0,2.226,1.363,3.856,3.789,3.856c1.895,0,2.825-0.533,3.922-1.63l2.626,2.56c-1.762,1.762-3.457,2.725-6.581,2.725
	c-4.088,0-8.011-1.86-8.011-8.875c0-5.65,3.058-8.841,7.545-8.841c4.82,0,7.546,3.523,7.546,8.277v1.928H245.46z"/>
<path style="fill:#00B4F0;" d="M269.694,74.152c-0.666-0.666-1.23-1.031-2.294-1.031c-1.329,0-2.792,0.998-2.792,3.191v10.437
	h-4.321V69.432h4.221v1.661c0.831-0.997,2.493-1.861,4.355-1.861c1.695,0,2.892,0.432,4.088,1.629L269.694,74.152z"/>
<g>
	<path style="fill:#00B4F0;" d="M128.405,62.508L94.39,38.691c-4.253-2.978-9.41-4.124-14.529-3.221
		c-5.115,0.902-9.574,3.742-12.552,7.996l-5.446,7.778l-5.589-3.912l5.446-7.778c4.025-5.748,10.046-9.584,16.956-10.802
		c6.911-1.217,13.881,0.327,19.628,4.352l34.015,23.816L128.405,62.508z"/>
	<path style="fill:#00B4F0;" d="M120.831,73.324l-33.99-23.8c-2.826-1.981-6.748-1.292-8.734,1.541l-5.426,7.752l-5.589-3.912
		l5.428-7.754c4.144-5.911,12.319-7.354,18.235-3.215l33.99,23.8L120.831,73.324z"/>
</g>
<g>
	<path style="fill:#00B4F0;" d="M32.26,54.081l34.015,23.817c4.253,2.978,9.41,4.124,14.529,3.221
		c5.115-0.902,9.574-3.742,12.552-7.996l5.446-7.778l5.589,3.912l-5.446,7.778c-4.025,5.748-10.046,9.584-16.956,10.802
		c-6.911,1.217-13.881-0.327-19.628-4.352L28.346,59.669L32.26,54.081z"/>
	<path style="fill:#00B4F0;" d="M39.835,43.265l33.99,23.8c2.826,1.981,6.748,1.292,8.734-1.541l5.426-7.752l5.589,3.912
		l-5.428,7.754c-4.144,5.911-12.319,7.354-18.235,3.215l-33.99-23.8L39.835,43.265z"/>
</g>
</svg>
