<?xml version="1.0" encoding="utf-8"?>
<!-- Generator: Adobe Illustrator 25.0.0, SVG Export Plug-In . SVG Version: 6.00 Build 0)  -->
<svg version="1.1" id="Logo" xmlns="http://www.w3.org/2000/svg" xmlns:xlink="http://www.w3.org/1999/xlink" x="0px" y="0px"
	 viewBox="0 0 160.668 116.589" style="enable-background:new 0 0 160.668 116.589;" xml:space="preserve">
<g>
	<path style="fill:#FFFFFF;" d="M128.405,62.508L94.39,38.691c-4.253-2.978-9.41-4.124-14.529-3.221
		c-5.115,0.902-9.574,3.742-12.552,7.996l-5.446,7.778l-5.589-3.912l5.446-7.778c4.025-5.748,10.046-9.584,16.956-10.802
		c6.911-1.217,13.881,0.327,19.628,4.352l34.015,23.816L128.405,62.508z"/>
	<path style="fill:#FFFFFF;" d="M120.831,73.324l-33.99-23.8c-2.826-1.981-6.748-1.292-8.734,1.541l-5.426,7.752l-5.589-3.912
		l5.428-7.754c4.144-5.911,12.319-7.354,18.235-3.215l33.99,23.8L120.831,73.324z"/>
</g>
<g>
	<path style="fill:#FFFFFF;" d="M32.26,54.081l34.015,23.817c4.253,2.978,9.41,4.124,14.529,3.221
		c5.115-0.902,9.574-3.742,12.552-7.996l5.446-7.778l5.589,3.912l-5.446,7.778c-4.025,5.748-10.046,9.584-16.956,10.802
		c-6.911,1.217-13.881-0.327-19.628-4.352L28.346,59.669L32.26,54.081z"/>
	<path style="fill:#FFFFFF;" d="M39.835,43.265l33.99,23.8c2.826,1.981,6.748,1.292,8.734-1.541l5.426-7.752l5.589,3.912
		l-5.428,7.754c-4.144,5.911-12.319,7.354-18.235,3.215l-33.99-23.8L39.835,43.265z"/>
</g>
</svg>
