<?xml version="1.0" encoding="UTF-8"?>
<svg width="1600px" height="900px" viewBox="0 0 1600 900" version="1.1" xmlns="http://www.w3.org/2000/svg" xmlns:xlink="http://www.w3.org/1999/xlink">
    <title>Group 2</title>
    <g id="Page-1" stroke="none" stroke-width="1" fill="none" fill-rule="evenodd">
        <g id="Group-2">
            <rect id="Rectangle" fill="#F4F6F8" x="0" y="0" width="1600" height="900"></rect>
            <g id="undraw_icon_design_qvdf" transform="translate(263.000000, 115.000000)" fill-rule="nonzero">
                <polygon id="Path" fill="#3F3D56" points="1064 213.31 827.56 670.78 224.36 556.51 223.17 556.29 188.98 549.81 35.34 520.7 0 514.01 48.97 414.57 57.23 397.8 64.99 382.06 65.69 380.63 78.69 354.23 133.64 242.66 136.4 237.05 140.23 229.28 141.11 227.49 143.07 223.5 154.22 200.87 174.26 160.19 177.75 153.1 193.59 120.93 253.15 0"></polygon>
                <path d="M521.53197,180.42312 C465.792582,124.683732 375.421178,124.683732 319.68179,180.42312 C263.942402,236.162508 263.942402,326.533912 319.68179,382.2733 L521.53197,584.12349 L723.38216,382.2733 C779.121548,326.533909 779.121546,236.162503 723.382155,180.423115 C667.642764,124.683727 577.271358,124.683729 521.53197,180.42312 Z" id="Path" fill="#0F72F9"></path>
                <polygon id="Path" fill="#D0CDE1" points="781.082 387.365 779.668 385.951 783.204 382.414 779.668 378.879 781.082 377.465 786.032 382.414"></polygon>
                <path d="M596.12402,572.32263 L594.70996,570.90856 L603.11719,562.50134 L604.53125,563.9154 L596.12402,572.32263 Z M612.93848,555.50817 L611.52441,554.09411 L619.93164,545.68689 L621.3457,547.10095 L612.93848,555.50817 Z M629.75293,538.69372 L628.33887,537.27966 L636.74609,528.87243 L638.16016,530.28649 L629.75293,538.69372 Z M646.56738,521.87927 L645.15332,520.46521 L653.56055,512.05798 L654.97461,513.47204 L646.56738,521.87927 Z M663.38186,505.06481 L661.96779,503.65075 L670.37502,495.24353 L671.78908,496.65759 L663.38186,505.06481 Z M680.19631,488.25036 L678.78225,486.8363 L687.18947,478.42907 L688.60354,479.84314 L680.19631,488.25036 Z M697.01076,471.43591 L695.5967,470.02185 L704.00295,461.6156 L705.41701,463.02966 L697.01076,471.43591 Z M713.82424,454.62243 L712.41018,453.20837 L720.8174,444.80114 L722.23147,446.21521 L713.82424,454.62243 Z M730.63867,437.80801 L729.22461,436.39395 L737.63184,427.98672 L739.0459,429.40078 L730.63867,437.80801 Z M747.45313,420.99356 L746.03906,419.57949 L754.44629,411.17227 L755.86035,412.58633 L747.45313,420.99356 Z M764.26758,404.1791 L762.85352,402.76504 L771.26074,394.35781 L772.67481,395.77188 L764.26758,404.1791 Z" id="Shape" fill="#D0CDE1"></path>
                <polygon id="Path" fill="#D0CDE1" points="582.768 585.679 577.818 580.73 579.232 579.316 582.768 582.851 586.303 579.316 587.717 580.73"></polygon>
                <path d="M569.41113,572.32263 L561.00391,563.9154 L562.41797,562.50134 L570.8252,570.90856 L569.41113,572.32263 Z M552.59668,555.50817 L544.18945,547.10095 L545.60352,545.68689 L554.01074,554.09411 L552.59668,555.50817 Z M535.78268,538.69372 L527.37545,530.28649 L528.78951,528.87243 L537.19674,537.27966 L535.78268,538.69372 Z M518.96826,521.87927 L510.56104,513.47204 L511.9751,512.05798 L520.38232,520.46521 L518.96826,521.87927 Z M502.15386,505.06481 L493.74663,496.65759 L495.1607,495.24353 L503.56792,503.65075 L502.15386,505.06481 Z M485.33936,488.25036 L476.93262,479.84411 L478.34668,478.43005 L486.75342,486.8363 L485.33936,488.25036 Z M468.52536,471.43689 L460.11813,463.02966 L461.5322,461.6156 L469.93942,470.02282 L468.52536,471.43689 Z M451.71091,454.62243 L443.30368,446.21521 L444.71774,444.80114 L453.12497,453.20837 L451.71091,454.62243 Z M434.89649,437.80801 L426.48926,429.40078 L427.90332,427.98672 L436.31055,436.39395 L434.89649,437.80801 Z M418.08203,420.99356 L409.67529,412.58633 L411.08936,411.17227 L419.49609,419.57949 L418.08203,420.99356 Z M401.26803,404.1791 L392.8608,395.77188 L394.27486,394.35781 L402.68209,402.76504 L401.26803,404.1791 Z" id="Shape" fill="#D0CDE1"></path>
                <polygon id="Path" fill="#D0CDE1" points="384.453 387.365 379.503 382.414 384.453 377.465 385.867 378.879 382.332 382.414 385.867 385.951"></polygon>
                <path d="M394.27441,370.47201 L392.86035,369.05795 L401.26758,360.65072 L402.68164,362.06478 L394.27441,370.47201 Z M411.08886,353.65759 L409.6748,352.24353 L418.08202,343.8363 L419.49608,345.25036 L411.08886,353.65759 Z M427.90331,336.84314 L426.48925,335.42907 L434.89599,327.02233 L436.31005,328.4364 L427.90331,336.84314 Z M444.71731,320.02914 L443.30324,318.61508 L451.71047,310.20785 L453.12453,311.62191 L444.71731,320.02914 Z M461.53176,303.21469 L460.1177,301.80062 L468.52492,293.3934 L469.93899,294.80746 L461.53176,303.21469 Z M478.34621,286.40023 L476.93215,284.98617 L485.33938,276.57894 L486.75344,277.99301 L478.34621,286.40023 Z M495.16067,269.58578 L493.7466,268.17172 L502.15383,259.76449 L503.56789,261.17855 L495.16067,269.58578 Z M511.97467,252.77178 L510.56061,251.35771 L518.96783,242.95049 L520.3819,244.36455 L511.97467,252.77178 Z M528.78912,235.95732 L527.37506,234.54326 L535.78229,226.13603 L537.19635,227.5501 L528.78912,235.95732 Z M545.60358,219.14287 L544.18951,217.72881 L552.59674,209.32158 L554.0108,210.73564 L545.60358,219.14287 Z M562.41803,202.32842 L561.00397,200.91435 L569.41119,192.50713 L570.82526,193.92119 L562.41803,202.32842 Z" id="Shape" fill="#D0CDE1"></path>
                <polygon id="Path" fill="#D0CDE1" points="586.303 185.515 582.768 181.979 579.232 185.515 577.818 184.1 582.768 179.151 587.717 184.1"></polygon>
                <path d="M771.26074,370.47106 L762.85352,362.06384 L764.26758,360.64978 L772.67486,369.05701 L771.26074,370.47106 Z M754.44629,353.65661 L746.03906,345.24987 L747.45313,343.83581 L755.86035,352.24255 L754.44629,353.65661 Z M737.63184,336.84261 L729.22461,328.43538 L730.63867,327.02132 L739.0459,335.42854 L737.63184,336.84261 Z M720.81738,320.02861 L712.41113,311.62139 L713.8252,310.20732 L722.23145,318.61455 L720.81738,320.02861 Z M704.00391,303.21416 L695.59668,294.80693 L697.01074,293.39287 L705.41797,301.8001 L704.00391,303.21416 Z M687.18945,286.39971 L678.78223,277.99248 L680.19629,276.57842 L688.60352,284.98564 L687.18945,286.39971 Z M670.375,269.58571 L661.96777,261.17848 L663.38184,259.76442 L671.78906,268.17165 L670.375,269.58571 Z M653.56055,252.77126 L645.15332,244.36403 L646.56738,242.94997 L654.97461,251.3572 L653.56055,252.77126 Z M636.74609,235.9568 L628.33887,227.54958 L629.75293,226.13552 L638.16016,234.54274 L636.74609,235.9568 Z M619.93164,219.1428 L611.52441,210.73557 L612.93848,209.32151 L621.3457,217.72874 L619.93164,219.1428 Z M603.11719,202.32835 L594.70996,193.92112 L596.12402,192.50706 L604.53125,200.91428 L603.11719,202.32835 Z" id="Shape" fill="#D0CDE1"></path>
                <path d="M478.82373,425.18884 C474.77637,425.10484 470.68018,424.84606 466.64941,424.41931 L466.85941,422.43103 C470.8345,422.85095 474.87405,423.10583 478.86575,423.18884 L478.82373,425.18884 Z M491.02051,424.9281 L490.89356,422.932 C494.87842,422.67907 498.90381,422.25134 502.85791,421.66149 L503.15286,423.64001 C499.14356,424.23767 495.06152,424.67126 491.02051,424.9281 L491.02051,424.9281 Z M454.58301,422.62634 C450.60254,421.86071 446.6084,420.91634 442.7124,419.81774 L443.2554,417.89196 C447.0972,418.97596 451.03519,419.90759 454.95999,420.66149 L454.58301,422.62634 Z M515.1333,421.33239 L514.67139,419.38708 C518.56494,418.46325 522.46094,417.36267 526.25049,416.1156 L526.87549,418.01599 C523.03223,419.27966 519.08154,420.39587 515.1333,421.33239 Z M431.12354,416.01013 C427.33254,414.58435 423.55664,412.97595 419.90186,411.23083 L420.76318,409.42614 C424.36718,411.14685 428.08984,412.73181 431.82764,414.13903 L431.12354,416.01013 Z M538.29492,413.7113 L537.51025,411.87146 C541.1875,410.30212 544.83984,408.55603 548.36525,406.68103 L549.3047,408.44665 C545.72949,410.34801 542.02539,412.1195 538.29492,413.7113 Z M409.13086,405.51013 C405.64258,403.46228 402.19678,401.23571 398.88818,398.89294 L400.04443,397.26013 C403.30615,399.57067 406.7041,401.76599 410.14356,403.78552 L409.13086,405.51013 Z M559.82422,402.26113 L558.73828,400.58145 C562.08887,398.41345 565.39063,396.06973 568.55371,393.61856 L569.77832,395.19863 C566.57129,397.68493 563.22266,400.06091 559.82422,402.26113 L559.82422,402.26113 Z M389.24854,391.43001 C386.16162,388.82454 383.13965,386.04817 380.26611,383.17708 L381.6792,381.76302 C384.51367,384.59407 387.49414,387.33235 390.53857,389.90169 L389.24854,391.43001 Z M579.09961,387.31872 L577.74609,385.84602 C579.19531,384.51302 580.64746,383.12044 582.06055,381.70735 C583.47363,380.29524 584.88281,378.82552 586.25098,377.33724 L587.72363,378.69075 C586.33691,380.19954 584.90723,381.68975 583.47463,383.12142 C582.04199,384.55407 580.56934,385.96618 579.09961,387.31872 L579.09961,387.31872 Z M372.00342,374.20349 C369.37942,371.1029 366.86182,367.85778 364.52149,364.55993 L366.15234,363.40173 C368.46045,366.65466 370.94234,369.85388 373.52979,372.91247 L372.00342,374.20349 Z M595.5957,369.3695 L594.0137,368.14488 C596.4639,364.9818 598.80277,361.68199 600.96585,358.33629 L602.64554,359.42223 C600.45117,362.81579 598.0791,366.16247 595.5957,369.3695 L595.5957,369.3695 Z M357.88818,354.31384 C355.83106,350.81872 353.90186,347.19421 352.15479,343.54084 L353.9585,342.67756 C355.68164,346.27961 357.5835,349.85334 359.61182,353.30012 L357.88818,354.31384 Z M608.82227,348.90759 L607.05664,347.96911 C608.92871,344.4447 610.67285,340.79382 612.24024,337.11853 L614.08008,337.90271 C612.49121,341.63024 610.72168,345.33288 608.82227,348.90759 Z M347.36279,332.31823 C345.93164,328.52523 344.64746,324.62585 343.5459,320.72839 L345.4707,320.18444 C346.55664,324.02722 347.82275,327.87194 349.23389,331.61218 L347.36279,332.31823 Z M618.37891,326.48815 L616.47852,325.86315 C617.72559,322.07115 618.82422,318.17615 619.74609,314.28747 L621.69141,314.74841 C620.75786,318.69226 619.64356,322.64201 618.37891,326.48815 L618.37891,326.48815 Z M340.72705,308.8573 C339.95996,304.88317 339.35352,300.82312 338.92432,296.79089 L340.91309,296.57897 C341.33643,300.55554 341.93457,304.55944 342.69092,308.47839 L340.72705,308.8573 Z M623.99705,302.7694 L622.01854,302.47546 C622.60643,298.52185 623.03318,294.49694 623.28611,290.51208 L625.28221,290.63903 C625.02539,294.67956 624.59277,298.76062 623.99707,302.7694 L623.99705,302.7694 Z M338.14598,284.6156 C338.12352,283.574087 338.11229,282.532087 338.11229,281.4896 C338.11229,278.47642 338.20799,275.42466 338.39695,272.41929 L340.39305,272.54429 C340.20652,275.50864 340.11229,278.51841 340.11229,281.4896 C340.11229,282.516933 340.12352,283.5446 340.14598,284.5726 L338.14598,284.6156 Z M623.54098,278.48425 C623.45698,274.49255 623.20113,270.453 622.78023,266.47741 L624.76852,266.26647 C625.19625,270.29821 625.45602,274.3944 625.54098,278.44226 L623.54098,278.48425 Z M341.65386,260.58044 L339.67534,260.28698 C340.26958,256.28064 341.04351,252.24987 341.97466,248.30698 L343.92095,248.76698 C343.00244,252.65515 342.23975,256.62976 341.65386,260.58044 Z M621.00686,254.57701 C620.25197,250.65074 619.31936,246.71227 618.2344,242.86949 L620.1592,242.32649 C621.25979,246.22298 622.2051,250.21761 622.9717,254.19905 L621.00686,254.57701 Z M347.18115,237.18884 L345.28076,236.56579 C346.54443,232.71423 347.98876,228.87292 349.57422,225.14831 L351.41406,225.93151 C349.85107,229.60388 348.42676,233.39147 347.18115,237.18884 Z M614.47852,231.43933 C613.06934,227.69909 611.48242,223.97497 609.75977,220.37097 L611.56445,219.50866 C613.31152,223.16394 614.9209,226.94079 616.34961,230.73425 L614.47852,231.43933 Z M356.59229,215.07849 L354.82568,214.14099 C356.72217,210.56677 358.79883,207.02819 360.99707,203.62292 L362.67774,204.70792 C360.50977,208.0653 358.4624,211.55456 356.59229,215.07849 Z M604.11129,209.74597 C602.08785,206.30163 599.88863,202.90173 597.57711,199.64097 L599.20797,198.48374 C601.55367,201.79136 603.78316,205.23911 605.8359,208.73228 L604.11129,209.74597 Z M369.62402,194.89489 L368.04202,193.67126 C370.51517,190.47497 373.16165,187.33776 375.90823,184.34704 L377.38089,185.69958 C374.67236,188.64929 372.0625,191.74301 369.62402,194.89489 Z M590.20508,190.12683 C587.62988,187.07995 584.88965,184.10095 582.06055,181.27183 L581.95606,181.16636 L583.36035,179.74253 L583.49316,179.87681 C586.34277,182.72593 589.12109,185.74644 591.73242,188.83581 L590.20508,190.12683 Z M385.88186,177.18493 L384.52639,175.71423 C387.51369,172.96179 390.64846,170.30896 393.84328,167.82849 L395.06984,169.40856 C391.91895,171.85437 388.82764,174.47058 385.88186,177.18493 Z M573.08786,173.02819 C570.03122,170.45056 566.83103,167.97644 563.57712,165.67419 L564.73142,164.04138 C568.0322,166.37638 571.27731,168.88513 574.37692,171.4989 L573.08786,173.02819 Z M404.88232,162.4403 L403.79443,160.76159 C407.19287,158.55993 410.73096,156.47692 414.31104,154.56921 L415.25147,156.33483 C411.72168,158.21521 408.23291,160.2694 404.88232,162.4403 Z M553.47461,159.15466 C550.03027,157.13415 546.45606,155.23866 542.85061,153.52038 L543.71193,151.71472 C547.36721,153.45788 550.99221,155.38024 554.48635,157.42907 L553.47461,159.15466 Z M426.10449,151.13901 L425.31836,149.30015 C429.04199,147.70933 432.88281,146.25915 436.73436,144.98915 L437.36036,146.88857 C433.56299,148.1405 429.77539,149.57067 426.10449,151.13901 Z M531.78516,148.81333 C528.04736,147.40903 524.20216,146.14878 520.35547,145.06626 L520.89747,143.14145 C524.79786,144.23862 528.69776,145.51694 532.48829,146.94126 L531.78516,148.81333 Z M448.93701,143.61218 L448.47461,141.66636 C452.41602,140.72936 456.44629,139.95054 460.4541,139.35093 L460.75,141.32847 C456.79834,141.92028 452.82373,142.68835 448.93701,143.61218 L448.93701,143.61218 Z M508.64795,142.30356 C504.72461,141.5521 500.72119,140.95884 496.74805,140.54136 L496.95705,138.5521 C500.98586,138.97593 505.04592,139.577 509.02395,140.3397 L508.64795,142.30356 Z M472.71338,140.05256 L472.58545,138.05646 C476.63086,137.7967 480.72656,137.70734 484.78223,137.78986 L484.74123,139.78986 C480.74268,139.70788 476.70264,139.79626 472.71338,140.05261 L472.71338,140.05256 Z" id="Shape" fill="#D0CDE1"></path>
                <path d="M680.67486,425.18884 C676.627,425.10484 672.5313,424.84606 668.49907,424.41931 L668.71001,422.43103 C672.6856,422.85095 676.72466,423.10583 680.71587,423.18884 L680.67486,425.18884 Z M692.87212,424.9281 L692.74512,422.932 C696.73047,422.67907 700.75488,422.25134 704.70899,421.66149 L705.00391,423.64001 C700.99512,424.23767 696.91309,424.67126 692.87207,424.9281 L692.87212,424.9281 Z M656.43462,422.62634 C652.45318,421.86071 648.45904,420.91634 644.56353,419.81774 L645.10653,417.89196 C648.94735,418.97596 652.88582,419.90759 656.8116,420.66149 L656.43462,422.62634 Z M716.98443,421.33239 L716.52349,419.38708 C720.41704,418.46325 724.31255,417.36267 728.10161,416.1156 L728.72661,418.01599 C724.88379,419.27966 720.93359,420.39587 716.98438,421.33239 L716.98443,421.33239 Z M632.97368,416.01013 C629.18462,414.58435 625.40825,412.97595 621.752,411.23083 L622.61333,409.42614 C626.2188,411.14685 629.94146,412.73278 633.67876,414.13903 L632.97368,416.01013 Z M740.14458,413.71228 L739.35943,411.87243 C743.03716,410.30407 746.6895,408.557 750.21489,406.682 L751.15435,408.44763 C747.57813,410.35001 743.87402,412.12146 740.14453,413.71228 L740.14458,413.71228 Z M610.98052,405.51013 C607.49126,403.4613 604.04497,401.23474 600.73931,398.89294 L601.89556,397.26013 C605.15532,399.5697 608.55279,401.76501 611.99321,403.78552 L610.98052,405.51013 Z M761.67388,402.26013 L760.58794,400.58044 C763.9356,398.41444 767.23833,396.07165 770.40337,393.61853 L771.62798,395.1986 C768.41895,397.68786 765.06934,400.06286 761.67386,402.26013 L761.67388,402.26013 Z M591.09863,391.43001 C588.01563,388.82747 584.99414,386.0511 582.11621,383.17806 L583.53027,381.76206 C586.36816,384.59606 589.34863,387.3353 592.38965,389.90269 L591.09863,391.43001 Z M780.9502,387.31872 L779.59668,385.84602 C781.0459,384.51302 782.49805,383.12044 783.91113,381.70735 C785.33496,380.28352 786.74513,378.81282 788.10156,377.33724 L789.57422,378.69075 C788.19822,380.18782 786.76856,381.67806 785.32522,383.12142 C783.89258,384.55407 782.41992,385.96618 780.9502,387.31872 L780.9502,387.31872 Z M573.85352,374.20349 C571.22952,371.1029 568.71289,367.85778 566.37207,364.55993 L568.00293,363.40173 C570.31055,366.65466 572.79293,369.85388 575.38086,372.91247 L573.85352,374.20349 Z M797.44531,369.3695 L795.86331,368.14488 C798.31351,364.9818 800.65237,361.68199 802.81546,358.33629 L804.49515,359.42223 C802.30078,362.81579 799.92871,366.16247 797.44531,369.3695 L797.44531,369.3695 Z M559.73731,354.31383 C557.68359,350.82311 555.75488,347.19859 554.00391,343.54083 L555.80859,342.67755 C557.53418,346.28399 559.43652,349.85772 561.46191,353.30011 L559.73731,354.31383 Z M810.67186,348.90808 L808.90623,347.9696 C810.7783,344.44519 812.52244,340.79431 814.08982,337.11901 L815.92967,337.90319 C814.34086,341.63122 812.57129,345.33337 810.67186,348.90808 Z M549.21286,332.31872 C547.78317,328.52917 546.49802,324.62972 545.39548,320.72888 L547.31931,320.18493 C548.4072,324.03112 549.6738,327.87585 551.08396,331.61267 L549.21286,332.31872 Z M820.22849,326.48864 L818.3281,325.86364 C819.57517,322.07164 820.6738,318.17664 821.59567,314.28796 L823.54099,314.7489 C822.60742,318.69274 821.49316,322.64245 820.22852,326.48864 L820.22849,326.48864 Z M542.57813,308.8573 C541.81055,304.88513 541.20413,300.82507 540.77441,296.79089 L542.7627,296.57897 C543.18652,300.55749 543.78516,304.56091 544.54102,308.47839 L542.57813,308.8573 Z M825.84668,302.7694 L823.86816,302.47546 C824.45606,298.52185 824.88281,294.49694 825.13574,290.51208 L827.13184,290.63903 C826.875,294.67956 826.44238,298.76062 825.84668,302.7694 Z M539.99707,284.61608 C539.97461,283.57458 539.963217,282.532753 539.96289,281.4906 C539.96289,278.48181 540.05859,275.43005 540.24805,272.41931 L542.24414,272.54431 C542.05762,275.51403 541.96289,278.52331 541.96289,281.48962 C541.96387,282.516953 541.975263,283.544787 541.99707,284.57312 L539.99707,284.61608 Z M825.39063,278.48474 C825.30563,274.48132 825.04981,270.44174 824.62988,266.47741 L826.61816,266.26647 C827.04395,270.28647 827.30371,274.38317 827.39063,278.44177 L825.39063,278.48474 Z M543.50486,260.58142 L541.52635,260.28747 C542.12107,256.27575 542.89549,252.24499 543.82518,248.30747 L545.77244,248.76747 C544.85449,252.64978 544.0918,256.62487 543.50486,260.58142 Z M822.8574,254.57702 C822.10252,250.65075 821.1699,246.71228 820.08592,242.8695 L822.01072,242.3265 C823.11033,246.22299 824.05564,250.21762 824.82225,254.19906 L822.8574,254.57702 Z M549.03125,237.18933 L547.13086,236.56628 C548.39453,232.71276 549.83986,228.87146 551.42481,225.1488 L553.26465,225.932 C551.70215,229.6029 550.27734,233.3905 549.03125,237.18933 Z M816.32813,231.43884 C814.9209,227.70202 813.33399,223.97839 811.61035,220.37097 L813.41504,219.50866 C815.16309,223.16735 816.77344,226.94421 818.19922,230.73474 L816.32813,231.43884 Z M558.44238,215.07849 L556.67481,214.14099 C558.57227,210.5653 560.64941,207.02673 562.84766,203.62292 L564.52734,204.70792 C562.36035,208.06384 560.3125,211.5531 558.44238,215.07849 Z M805.96191,209.74601 C803.93652,206.29923 801.73828,202.89933 799.42774,199.64101 L801.05859,198.48378 C803.40234,201.78896 805.63184,205.23671 807.68652,208.73232 L805.96191,209.74601 Z M571.47461,194.89444 L569.89261,193.67081 C572.36819,190.4711 575.01468,187.3339 577.75882,184.34659 L579.23148,185.69913 C576.52539,188.64538 573.91602,191.73913 571.47461,194.89444 L571.47461,194.89444 Z M792.05566,190.12638 C789.47949,187.07901 786.73926,184.10001 783.91113,181.27189 L783.80469,181.16589 L785.20899,179.74206 L785.3252,179.85778 C788.19238,182.72497 790.9707,185.74548 793.58301,188.83532 L792.05566,190.12638 Z M587.73242,177.18493 L586.37695,175.71423 C589.36231,172.96323 592.49707,170.31042 595.69434,167.82849 L596.9209,169.40856 C593.76856,171.85583 590.67676,174.47253 587.73242,177.18493 Z M774.9375,173.02819 C771.88086,170.45056 768.68066,167.97644 765.42676,165.67419 L766.58106,164.04138 C769.88184,166.37638 773.12695,168.88513 776.22656,171.4989 L774.9375,173.02819 Z M606.7334,162.4403 L605.64551,160.76159 C609.04688,158.55798 612.58496,156.47497 616.16309,154.56921 L617.10254,156.33483 C613.5752,158.21325 610.08691,160.26745 606.7334,162.4403 L606.7334,162.4403 Z M755.3252,159.15417 C751.88477,157.1361 748.31055,155.2406 744.7012,153.52038 L745.56253,151.71472 C749.22269,153.45983 752.84769,155.38272 756.33694,157.42956 L755.3252,159.15417 Z M627.9541,151.13855 L627.16895,149.29968 C630.89356,147.70837 634.73438,146.25817 638.58395,144.98913 L639.2109,146.88855 C635.41406,148.13952 631.62695,149.5697 627.9541,151.13855 L627.9541,151.13855 Z M733.63379,148.81335 C729.89941,147.41003 726.05371,146.14929 722.20508,145.06628 L722.74608,143.14147 C726.65038,144.23913 730.5498,145.51794 734.3369,146.94128 L733.63379,148.81335 Z M650.78809,143.61218 L650.3252,141.66638 C654.26953,140.72888 658.29981,139.95007 662.30469,139.35144 L662.59961,141.32897 C658.65137,141.9198 654.67676,142.68786 650.78809,143.61218 L650.78809,143.61218 Z M710.49809,142.30358 C706.57426,141.55163 702.57035,140.95886 698.59867,140.54138 L698.80767,138.55212 C702.83599,138.97595 706.89556,139.57702 710.87505,140.33972 L710.49809,142.30358 Z M674.56352,140.05258 L674.43461,138.05648 C678.48051,137.79672 682.5811,137.70541 686.63285,137.78988 L686.59185,139.78988 C682.5957,139.70739 678.55176,139.79626 674.56348,140.05261 L674.56352,140.05258 Z" id="Shape" fill="#D0CDE1"></path>
                <rect id="Rectangle" fill="#D0CDE1" x="90.18359" y="583.68494" width="6" height="2"></rect>
                <path d="M1056.50686,585.68493 L1044.50295,585.68493 L1044.50295,583.68493 L1056.50686,583.68493 L1056.50686,585.68493 Z M1032.49904,585.68493 L1020.49514,585.68493 L1020.49514,583.68493 L1032.49904,583.68493 L1032.49904,585.68493 Z M1008.49123,585.68493 L996.48733,585.68493 L996.48733,583.68493 L1008.49123,583.68493 L1008.49123,585.68493 Z M984.48342,585.68493 L972.47854,585.68493 L972.47854,583.68493 L984.48342,583.68493 L984.48342,585.68493 Z M960.47463,585.68493 L948.47072,585.68493 L948.47072,583.68493 L960.47463,583.68493 L960.47463,585.68493 Z M936.46682,585.68493 L924.46286,585.68493 L924.46286,583.68493 L936.46682,583.68493 L936.46682,585.68493 Z M912.45901,585.68493 L900.45508,585.68493 L900.45508,583.68493 L912.45901,583.68493 L912.45901,585.68493 Z M888.45119,585.68493 L876.44629,585.68493 L876.44629,583.68493 L888.45119,583.68493 L888.45119,585.68493 Z M864.4424,585.68493 L852.4385,585.68493 L852.4385,583.68493 L864.4424,583.68493 L864.4424,585.68493 Z M840.43459,585.68493 L828.43066,585.68493 L828.43066,583.68493 L840.43459,583.68493 L840.43459,585.68493 Z M816.42678,585.68493 L804.42186,585.68493 L804.42186,583.68493 L816.42678,583.68493 L816.42678,585.68493 Z M792.41799,585.68493 L780.41406,585.68493 L780.41406,583.68493 L792.41799,583.68493 L792.41799,585.68493 Z M768.41018,585.68493 L756.40625,585.68493 L756.40625,583.68493 L768.41018,583.68493 L768.41018,585.68493 Z M744.40236,585.68493 L732.39846,585.68493 L732.39846,583.68493 L744.40236,583.68493 L744.40236,585.68493 Z M720.39455,585.68493 L708.38965,585.68493 L708.38965,583.68493 L720.39455,583.68493 L720.39455,585.68493 Z M696.38576,585.68493 L684.38186,585.68493 L684.38186,583.68493 L696.38576,583.68493 L696.38576,585.68493 Z M672.37795,585.68493 L660.37402,585.68493 L660.37402,583.68493 L672.37795,583.68493 L672.37795,585.68493 Z M648.37014,585.68493 L636.36524,585.68493 L636.36524,583.68493 L648.37014,583.68493 L648.37014,585.68493 Z M624.36135,585.68493 L612.35742,585.68493 L612.35742,583.68493 L624.36135,583.68493 L624.36135,585.68493 Z M600.35354,585.68493 L588.34961,585.68493 L588.34961,583.68493 L600.35354,583.68493 L600.35354,585.68493 Z M576.34572,585.68493 L564.34182,585.68493 L564.34182,583.68493 L576.34572,583.68493 L576.34572,585.68493 Z M552.33791,585.68493 L540.33301,585.68493 L540.33301,583.68493 L552.33791,583.68493 L552.33791,585.68493 Z M528.32912,585.68493 L516.32522,585.68493 L516.32522,583.68493 L528.32912,583.68493 L528.32912,585.68493 Z M504.32131,585.68493 L492.31738,585.68493 L492.31738,583.68493 L504.32131,583.68493 L504.32131,585.68493 Z M480.31301,585.68493 L468.30908,585.68493 L468.30908,583.68493 L480.31301,583.68493 L480.31301,585.68493 Z M456.3052,585.68493 L444.3008,585.68493 L444.3008,583.68493 L456.3052,583.68493 L456.3052,585.68493 Z M432.2969,585.68493 L420.29297,585.68493 L420.29297,583.68493 L432.2969,583.68493 L432.2969,585.68493 Z M408.28908,585.68493 L396.28467,585.68493 L396.28467,583.68493 L408.28908,583.68493 L408.28908,585.68493 Z M384.28078,585.68493 L372.27686,585.68493 L372.27686,583.68493 L384.28078,583.68493 L384.28078,585.68493 Z M360.27248,585.68493 L348.26856,585.68493 L348.26856,583.68493 L360.27248,583.68493 L360.27248,585.68493 Z M336.26467,585.68493 L324.26074,585.68493 L324.26074,583.68493 L336.26467,583.68493 L336.26467,585.68493 Z M312.25637,585.68493 L300.25244,585.68493 L300.25244,583.68493 L312.25637,583.68493 L312.25637,585.68493 Z M288.24856,585.68493 L276.24416,585.68493 L276.24416,583.68493 L288.24856,583.68493 L288.24856,585.68493 Z M264.24026,585.68493 L252.23633,585.68493 L252.23633,583.68493 L264.24026,583.68493 L264.24026,585.68493 Z M240.23195,585.68493 L228.22805,585.68493 L228.22805,583.68493 L240.23195,583.68493 L240.23195,585.68493 Z M216.22414,585.68493 L204.21973,585.68493 L204.21973,583.68493 L216.22414,583.68493 L216.22414,585.68493 Z M192.21586,585.68493 L180.21191,585.68493 L180.21191,583.68493 L192.21586,583.68493 L192.21586,585.68493 Z M168.20803,585.68493 L156.20363,585.68493 L156.20363,583.68493 L168.20803,583.68493 L168.20803,585.68493 Z M144.19973,585.68493 L132.1958,585.68493 L132.1958,583.68493 L144.19973,583.68493 L144.19973,585.68493 Z M120.19143,585.68493 L108.1875,585.68493 L108.1875,583.68493 L120.19143,583.68493 L120.19143,585.68493 Z" id="Shape" fill="#D0CDE1"></path>
                <rect id="Rectangle" fill="#D0CDE1" x="1068.51172" y="583.68494" width="6" height="2"></rect>
                <polygon id="Path" fill="#FFB9B9" points="223.02 556.75 223.17 556.29 226.04 547.56 188.98 549.81"></polygon>
                <path d="M180.99667,385.82224 L203.51767,443.14831 C203.51767,443.14831 201.47031,492.28495 228.08599,488.19023 C254.70167,484.09551 223.99127,434.95887 223.99127,434.95887 L207.61239,375.58544 C207.61239,375.58544 187.13875,371.49072 180.99667,385.82224 Z" id="Path" fill="#FFB9B9"></path>
                <circle id="Oval" fill="#FFB9B9" cx="143.12052" cy="165.73107" r="36.85248"></circle>
                <path d="M115.48116,176.99155 C115.48116,176.99155 103.197,217.93874 95.00756,217.93874 C86.81812,217.93874 150.28628,242.50706 150.28628,242.50706 C150.28628,242.50706 133.9074,226.12818 150.28628,195.41779 L115.48116,176.99155 Z" id="Path" fill="#FFB9B9"></path>
                <path d="M223.02,556.75001 C223.47,556.67001 223.92,556.59001 224.36,556.51001 C235.12,554.57001 241.98,552.28001 242.42,549.61001 C243.27,544.50001 235.97,517.77001 227.16,488.30001 C217.28,455.29001 205.51,418.84001 201.15,405.45001 C200.05,402.06001 199.42,400.15001 199.42,400.15001 L195.48,375.50001 L191.23,348.97001 L90.91,375.59001 L76.58,400.15001 L73.53,409.05001 L73.53,409.06001 L69.04,422.19001 L60.19,448.06001 L35.34,520.70001 L188.98,549.81001 L223.02,556.75001 Z" id="Path" fill="#2F2E41"></path>
                <path d="M107.29172,213.84401 C107.29172,213.84401 135.68147,221.38129 144.00755,229.89681 L158.47572,238.41233 L176.90195,277.31217 C176.90195,277.31217 191.23347,283.45424 191.23347,310.06992 C191.23347,336.6856 211.70707,381.72751 211.70707,381.72751 C211.70707,381.72751 226.03859,394.01167 215.80179,400.15375 C205.56499,406.29583 193.28079,406.29583 193.28079,406.29583 C193.28079,406.29583 203.51759,367.39599 183.04399,365.34863 C162.57039,363.30127 152.3336,361.25391 150.28624,365.34863 C148.23888,369.44335 92.96016,428.81678 70.43924,422.67471 C47.91832,416.53264 60.20244,355.11183 60.20244,355.11183 L78.62868,211.79665 C78.62868,211.79665 92.96019,209.74929 101.14968,211.79665 C109.33917,213.84401 107.29172,213.84401 107.29172,213.84401 Z" id="Path" fill="#575A89"></path>
                <circle id="Oval" fill="#CFCCE0" cx="133.87046" cy="501.09403" r="6.1897"></circle>
                <path d="M109.85034,504.82823 L116.0175,510.29737 L176.14264,529.51874 L177.04398,527.89525 L142.15986,508.52801 C138.374056,512.750611 132.020434,513.455633 127.401011,510.165707 C122.781589,506.875781 121.370575,500.640831 124.123363,495.682521 C126.876151,490.724211 132.914236,488.624901 138.149249,490.806027 C143.384262,492.987154 146.14554,498.752647 144.56343,504.19871 L179.44757,523.56593 L180.34891,521.94244 L132.24161,481.07458 L124.55549,478.34137 L126.70873,474.46297 L121.2971,471.45851 L117.09086,479.03481 L85.16229,461.30849 L74.34623,480.79033 L106.2748,498.51665 L102.06855,506.09293 L107.48018,509.09739 L109.85034,504.82823 Z" id="Path" fill="#CFCCE0"></path>
                <path d="M37.68149,385.82224 L60.20249,443.14831 C60.20249,443.14831 58.15513,492.28495 84.77081,488.19023 C111.38649,484.09551 80.67609,434.95887 80.67609,434.95887 L64.29721,375.58544 C64.29721,375.58544 43.82357,371.49072 37.68149,385.82224 Z" id="Path" fill="#FFB9B9"></path>
                <path d="M82.72341,213.84401 L78.62869,211.79665 C78.62869,211.79665 66.34453,199.5125 52.01301,215.89137 C37.68149,232.27024 23.35001,318.25937 23.35001,318.25937 L23.35001,344.87501 C23.35001,344.87501 6.9711,367.39601 21.30261,379.68016 C35.63412,391.96431 37.68149,394.01168 37.68149,394.01168 C37.68149,394.01168 52.01301,373.53808 68.39189,383.77488 L70.43925,375.58544 C72.0966736,373.748948 73.4762172,371.679633 74.53397,369.44336 C76.58133,365.34864 80.67605,371.49072 78.62869,365.34864 C76.58133,359.20656 78.62869,357.1592 78.62869,355.11184 C78.62869,353.06448 80.67605,342.82769 80.67605,342.82769 L78.62869,279.35953 L82.72341,213.84401 Z" id="Path" fill="#575A89"></path>
                <path d="M189.03819,157.00001 C189.03819,157.00001 218.97644,91.72714 140.73419,91.79726 C140.73419,91.79726 92.73128,66.57978 56.17659,125.06151 L18.45401,186.55051 L28.09201,184.63479 L29.31532,194.22933 L41.61313,201.77385 L50.86276,192.21473 L49.33284,206.84829 L155.29464,251.8487 C155.29464,251.8487 115.34564,207.61006 130.75584,155.45242 L137.0116,168.22053 L189.03819,157.00001 Z" id="Path" fill="#2F2E41"></path>
                <ellipse id="Oval" fill="#FFB9B9" cx="124.52661" cy="176.17205" rx="5.17272" ry="10.34544"></ellipse>
            </g>
        </g>
    </g>
</svg>