<?xml version="1.0" encoding="UTF-8"?>
<svg width="1600px" height="900px" viewBox="0 0 1600 900" version="1.1" xmlns="http://www.w3.org/2000/svg" xmlns:xlink="http://www.w3.org/1999/xlink">
    <title>Group 2</title>
    <g id="Page-1" stroke="none" stroke-width="1" fill="none" fill-rule="evenodd">
        <g id="Group-2">
            <rect id="Rectangle" fill="#F4F6F8" x="0" y="0" width="1600" height="900"></rect>
            <g id="undraw_experience_design_eq-3-j" transform="translate(286.000000, 102.000000)" fill-rule="nonzero">
                <circle id="Oval" fill="#0F72F9" opacity="0.4" cx="696.2479" cy="355.702177" r="76.7521"></circle>
                <rect id="Rectangle" fill="#3F3D56" x="270" y="461.902427" width="428" height="116"></rect>
                <path d="M670.58659,174.506417 L653.4967,182.594757 L668.622,171.284857 C666.16372,167.44779 663.402096,163.813756 660.36361,160.417607 L586.2469,178.839697 L653.19522,153.301217 C650.135915,150.601953 646.886979,148.125552 643.47341,145.891067 L530.5369,164.082177 C518.545904,179.076856 512.009253,197.702836 512.00002,216.902427 L682.00002,216.902427 C681.993129,202.012219 678.056043,187.387629 670.58659,174.506417 L670.58659,174.506417 Z" id="Path" fill="#F2F2F2"></path>
                <path d="M684.12317,50.1958773 C616.189967,17.0624164 541.582636,-0.106522398 466,-2.84217094e-14 C312.17035,-2.84217094e-14 174.63861,69.7531873 83.28967,179.349187 C239.71607,145.074717 512.0669,85.7436573 684.12317,50.1958773 Z" id="Path" fill="#F2F2F2"></path>
                <rect id="Rectangle" fill="#2F2E41" x="0" y="693.902427" width="1020" height="2"></rect>
                <path d="M595.86439,216.902427 L538,130.951807 C538,130.951807 625.63109,161.544397 615.68592,216.902427 L595.86439,216.902427 Z" id="Path" fill="#3F3D56"></path>
                <path d="M598.13561,216.902427 L656,130.951807 C656,130.951807 568.36891,161.544397 578.31409,216.902427 L598.13561,216.902427 Z" id="Path" fill="#0F72F9"></path>
                <path d="M698.5,695.902427 L269.5,695.902427 L269.5,55.9024273 L698.5,55.9024273 L698.5,695.902427 Z M271.5,693.902427 L696.5,693.902427 L696.5,57.9024273 L271.5,57.9024273 L271.5,693.902427 Z" id="Shape" fill="#2F2E41"></path>
                <rect id="Rectangle" fill="#2F2E41" x="271" y="71.0835773" width="427" height="2"></rect>
                <circle id="Oval" fill="#0F72F9" cx="282" cy="63.9024273" r="4"></circle>
                <circle id="Oval" fill="#0F72F9" cx="293" cy="63.9024273" r="4"></circle>
                <circle id="Oval" fill="#0F72F9" cx="304" cy="63.9024273" r="4"></circle>
                <rect id="Rectangle" fill="#0F72F9" x="286" y="84.9024273" width="18" height="10"></rect>
                <rect id="Rectangle" fill="#0F72F9" x="286" y="163.902427" width="88" height="10"></rect>
                <rect id="Rectangle" fill="#F2F2F2" transform="translate(643.000000, 89.902427) rotate(-180.000000) translate(-643.000000, -89.902427) " x="599" y="84.9024273" width="88" height="10"></rect>
                <rect id="Rectangle" fill="#F2F2F2" x="286" y="180.902427" width="148" height="6"></rect>
                <rect id="Rectangle" fill="#F2F2F2" x="286" y="193.902427" width="140" height="6"></rect>
                <rect id="Rectangle" fill="#F2F2F2" x="286" y="206.902427" width="102" height="6"></rect>
                <rect id="Rectangle" fill="#F2F2F2" x="320" y="384.902427" width="58" height="6"></rect>
                <rect id="Rectangle" fill="#F2F2F2" x="320" y="397.902427" width="54.86486" height="6"></rect>
                <rect id="Rectangle" fill="#F2F2F2" x="320" y="410.902427" width="39.97297" height="6"></rect>
                <rect id="Rectangle" fill="#F2F2F2" x="455" y="384.902427" width="58" height="6"></rect>
                <rect id="Rectangle" fill="#F2F2F2" x="455" y="397.902427" width="54.86486" height="6"></rect>
                <rect id="Rectangle" fill="#F2F2F2" x="455" y="410.902427" width="39.97297" height="6"></rect>
                <rect id="Rectangle" fill="#F2F2F2" x="595" y="384.902427" width="58" height="6"></rect>
                <rect id="Rectangle" fill="#F2F2F2" x="595" y="397.902427" width="54.86486" height="6"></rect>
                <rect id="Rectangle" fill="#F2F2F2" x="595" y="410.902427" width="39.97297" height="6"></rect>
                <rect id="Rectangle" fill="#0F72F9" x="410" y="611.902427" width="88" height="10"></rect>
                <rect id="Rectangle" fill="#F2F2F2" x="410" y="628.902427" width="148" height="6"></rect>
                <rect id="Rectangle" fill="#F2F2F2" x="410" y="641.902427" width="140" height="6"></rect>
                <rect id="Rectangle" fill="#F2F2F2" x="410" y="654.902427" width="102" height="6"></rect>
                <rect id="Rectangle" fill="#0F72F9" opacity="0.3" x="312.5" y="271.902427" width="348" height="2"></rect>
                <rect id="Rectangle" fill="#0F72F9" opacity="0.3" x="312" y="306.902427" width="74" height="66"></rect>
                <rect id="Rectangle" fill="#3F3D56" x="447" y="306.902427" width="74" height="66"></rect>
                <rect id="Rectangle" fill="#3F3D56" x="587" y="306.902427" width="74" height="66"></rect>
                <path d="M474.35863,372.624997 L473.38236,372.605927 C473.40336,371.524787 474.0135,346.044597 484.04455,339.001927 L484.60514,339.800857 C474.97881,346.559427 474.3634,372.365197 474.35863,372.624997 Z" id="Path" fill="#0F72F9"></path>
                <circle id="Oval" fill="#0F72F9" cx="489.20618" cy="333.798357" r="4.88134"></circle>
                <path d="M488.21928,351.034107 C485.680185,351.83162 482.976178,351.948377 480.37779,351.372697 C483.747979,347.081869 489.323291,345.169481 494.61764,346.488287 C492.919674,348.53766 490.713306,350.10521 488.21928,351.034107 Z" id="Path" fill="#0F72F9"></path>
                <path d="M614.35863,372.624997 L613.38236,372.605927 C613.40336,371.524787 614.0135,346.044597 624.04455,339.001927 L624.60514,339.800857 C614.97881,346.559427 614.3634,372.365197 614.35863,372.624997 Z" id="Path" fill="#0F72F9"></path>
                <circle id="Oval" fill="#0F72F9" cx="629.20618" cy="333.798357" r="4.88134"></circle>
                <path d="M628.21928,351.034107 C625.680185,351.83162 622.976178,351.948377 620.37779,351.372697 C623.747979,347.081869 629.323291,345.169481 634.61764,346.488287 C632.919674,348.53766 630.713306,350.10521 628.21928,351.034107 Z" id="Path" fill="#0F72F9"></path>
                <rect id="Rectangle" fill="#0F72F9" x="286" y="498.902427" width="88" height="10"></rect>
                <rect id="Rectangle" fill="#F2F2F2" x="286" y="515.902427" width="148" height="6"></rect>
                <rect id="Rectangle" fill="#F2F2F2" x="286" y="528.902427" width="140" height="6"></rect>
                <rect id="Rectangle" fill="#F2F2F2" x="286" y="541.902427" width="102" height="6"></rect>
                <circle id="Oval" fill="#0F72F9" opacity="0.4" cx="611.7521" cy="512.702177" r="31.2479"></circle>
                <circle id="Oval" fill="#0F72F9" opacity="0.4" cx="553.92017" cy="527.626547" r="21.92017"></circle>
                <circle id="Oval" fill="#2F2E41" cx="167.5" cy="582.402427" r="79"></circle>
                <rect id="Rectangle" fill="#2F2E41" x="131.5" y="644.402427" width="24" height="43"></rect>
                <rect id="Rectangle" fill="#2F2E41" x="179.5" y="644.402427" width="24" height="43"></rect>
                <ellipse id="Oval" fill="#2F2E41" cx="151.5" cy="687.902427" rx="20" ry="7.5"></ellipse>
                <ellipse id="Oval" fill="#2F2E41" cx="199.5" cy="686.902427" rx="20" ry="7.5"></ellipse>
                <circle id="Oval" fill="#FFFFFF" cx="169.5" cy="562.402427" r="27"></circle>
                <circle id="Oval" fill="#3F3D56" cx="169.5" cy="550.402427" r="9"></circle>
                <path d="M90.86733,508.934707 C84.48844,480.367127 104.87918,451.500787 136.41133,444.459937 C167.94348,437.419087 198.67643,454.869937 205.05533,483.437537 C211.43423,512.005137 190.53672,522.541327 159.00458,529.582177 C127.47244,536.623027 97.24622,537.502277 90.86733,508.934707 Z" id="Path" fill="#0F72F9"></path>
                <ellipse id="Oval" fill="#2F2E41" transform="translate(227.276387, 494.986829) rotate(-65.076830) translate(-227.276387, -494.986829) " cx="227.276387" cy="494.986829" rx="39.5" ry="12.40027"></ellipse>
                <ellipse id="Oval" fill="#2F2E41" transform="translate(82.276388, 518.986788) rotate(-27.893290) translate(-82.276388, -518.986788) " cx="82.2763884" cy="518.986788" rx="12.40027" ry="39.5"></ellipse>
                <ellipse id="Oval" fill="#2F2E41" transform="translate(820.003091, 523.652663) rotate(-21.078320) translate(-820.003091, -523.652663) " cx="820.003091" cy="523.652663" rx="12.40027" ry="39.5"></ellipse>
                <circle id="Oval" fill="#2F2E41" cx="893.18955" cy="583.104307" r="79"></circle>
                <rect id="Rectangle" fill="#2F2E41" transform="translate(917.420171, 666.532738) rotate(179.839572) translate(-917.420171, -666.532738) " x="905.420124" y="645.032654" width="24.0000941" height="43.0001686"></rect>
                <rect id="Rectangle" fill="#2F2E41" transform="translate(869.423467, 666.671282) rotate(179.839510) translate(-869.423467, -666.671282) " x="857.423467" y="645.171282" width="24" height="43"></rect>
                <ellipse id="Oval" fill="#2F2E41" transform="translate(909.485065, 688.558991) rotate(-0.160490) translate(-909.485065, -688.558991) " cx="909.485065" cy="688.558991" rx="20" ry="7.5"></ellipse>
                <ellipse id="Oval" fill="#2F2E41" transform="translate(861.482439, 687.693454) rotate(-0.160490) translate(-861.482439, -687.693454) " cx="861.482439" cy="687.693454" rx="20" ry="7.5"></ellipse>
                <circle id="Oval" fill="#FFFFFF" cx="891.13354" cy="563.109987" r="27"></circle>
                <circle id="Oval" fill="#3F3D56" cx="891.13354" cy="563.109987" r="9"></circle>
                <path d="M969.61614,509.422217 C975.91498,480.836887 955.44347,452.027777 923.89173,445.075277 C892.33999,438.122777 861.65604,455.659657 855.35719,484.244987 C849.05834,512.830317 869.98527,523.307987 901.53701,530.260467 C933.08875,537.212947 963.31729,538.007557 969.61614,509.422217 Z" id="Path" fill="#0F72F9"></path>
                <ellipse id="Oval" fill="#2F2E41" transform="translate(982.066868, 546.198751) rotate(-25.534750) translate(-982.066868, -546.198751) " cx="982.066868" cy="546.198751" rx="39.5" ry="12.40027"></ellipse>
                <path d="M932.073798,611.495497 C932.09544,619.227497 912.22967,634.551177 890.13837,634.613179 C868.04707,634.674917 847.27301,612.965047 847.251353,605.233047 C847.22973,597.501047 867.96865,606.675047 890.05995,606.613147 C912.15125,606.551247 932.05213,603.763547 932.073798,611.495497 Z" id="Path" fill="#FFFFFF"></path>
                <circle id="Oval" fill="#0F72F9" opacity="0.4" cx="917.2479" cy="468.702177" r="110.2479"></circle>
                <circle id="Oval" fill="#2F2E41" cx="190.40483" cy="348.590717" r="79"></circle>
                <rect id="Rectangle" fill="#2F2E41" transform="translate(151.914538, 426.480034) rotate(10.261060) translate(-151.914538, -426.480034) " x="139.914538" y="404.980034" width="24" height="43"></rect>
                <rect id="Rectangle" fill="#2F2E41" transform="translate(199.146845, 435.030446) rotate(10.261060) translate(-199.146845, -435.030446) " x="187.146845" y="413.530446" width="24" height="43"></rect>
                <ellipse id="Oval" fill="#2F2E41" transform="translate(199.435389, 461.505272) rotate(-49.738940) translate(-199.435389, -461.505272) " cx="199.435389" cy="461.505272" rx="7.5" ry="20"></ellipse>
                <ellipse id="Oval" fill="#2F2E41" transform="translate(153.187103, 453.132992) rotate(-49.738940) translate(-153.187103, -453.132992) " cx="153.187103" cy="453.132992" rx="7.5" ry="20"></ellipse>
                <circle id="Oval" fill="#FFFFFF" cx="195.93551" cy="329.266857" r="27"></circle>
                <circle id="Oval" fill="#3F3D56" cx="207.03243" cy="319.588797" r="9"></circle>
                <path d="M128.0849,262.647157 C126.8969,233.400157 152.10355,208.627807 184.38558,207.316497 C216.66761,206.005187 243.80047,228.651497 244.98849,257.898497 C246.17651,287.145497 223.73639,293.790637 191.45435,295.101947 C159.17231,296.413257 129.2729,291.894137 128.0849,262.647157 Z" id="Path" fill="#0F72F9"></path>
                <ellipse id="Oval" fill="#2F2E41" transform="translate(263.350394, 334.198228) rotate(-12.910100) translate(-263.350394, -334.198228) " cx="263.350394" cy="334.198228" rx="39.5" ry="12.40027"></ellipse>
                <ellipse id="Oval" fill="#2F2E41" transform="translate(108.276367, 359.986809) rotate(-12.910100) translate(-108.276367, -359.986809) " cx="108.276367" cy="359.986809" rx="39.5" ry="12.40027"></ellipse>
                <path d="M168.70744,379.723607 C166.936592,389.505738 173.431019,398.871278 183.21315,400.642127 C192.995281,402.412975 202.360821,395.918548 204.13167,386.136417 C205.90252,376.354287 198.33929,372.892787 188.55716,371.121937 C178.77503,369.351087 170.47829,369.941477 168.70744,379.723607 Z" id="Path" fill="#FFFFFF"></path>
                <rect id="Rectangle" fill="#3F3D56" transform="translate(331.500011, 305.402419) rotate(16.688760) translate(-331.500011, -305.402419) " x="294.500011" y="272.402419" width="74" height="66"></rect>
                <path d="M312.86771,333.977947 L311.93804,333.679317 C312.2686,332.649747 320.17028,308.418027 331.80127,304.552657 L332.10882,305.478927 C320.94708,309.188387 312.9469,333.730457 312.86771,333.977947 Z" id="Path" fill="#0F72F9"></path>
                <circle id="Oval" fill="#0F72F9" cx="338.23982" cy="301.050537" r="4.88134"></circle>
                <path d="M332.34484,317.276877 C329.683675,317.31164 327.060038,316.646963 324.73642,315.349347 C329.196857,312.207078 335.086513,311.976318 339.77913,314.759967 C337.564161,316.23541 335.000569,317.103325 332.34484,317.276877 L332.34484,317.276877 Z" id="Path" fill="#0F72F9"></path>
            </g>
        </g>
    </g>
</svg>