<?xml version="1.0" encoding="UTF-8"?>
<svg width="1600px" height="900px" viewBox="0 0 1600 900" version="1.1" xmlns="http://www.w3.org/2000/svg" xmlns:xlink="http://www.w3.org/1999/xlink">
    <title>Group 2</title>
    <g id="Page-1" stroke="none" stroke-width="1" fill="none" fill-rule="evenodd">
        <g id="Group-2">
            <rect id="Rectangle" fill="#F4F6F8" x="0" y="0" width="1600" height="900"></rect>
            <g id="undraw_inspiration_lecl" transform="translate(313.000000, 84.000000)" fill-rule="nonzero">
                <path d="M450.43439,689.71351 C476.91807,686.259043 502.381547,683.322516 526.82482,680.90393 L517.42234,665.13966 C520.68987,664.22999 534.84124,673.35504 534.84124,673.35504 L522.88998,627.76544 C539.22376,629.59864 546.8185,676.09725 546.8185,676.09725 L565.34077,660.61048 L556.21706,678.15154 C631.01442,671.61783 695.55534,669.60381 749.80759,670.1076 L741.76,656.61499 C745.02753,655.70533 759.17889,664.83038 759.17889,664.83038 L747.22763,619.24078 C763.56141,621.07397 771.15615,667.57258 771.15615,667.57258 L789.67842,652.08581 L780.01497,670.66466 C825.48343,671.93106 862.53148,674.94158 891.11222,678.22201 C883.08651,657.2531 855.02708,637.08326 855.02708,637.08326 C876.60808,642.7179 887.83178,651.88313 893.63875,660.37609 C894.794276,616.961616 886.856668,573.785398 870.33575,533.6206 C870.33575,533.6206 913.84566,615.69521 907.27853,670.39005 L906.44359,680.10596 C944.33684,685.07806 963.34974,690.02446 963.34974,690.02446 L450.43439,689.71351 Z" id="Path" fill="#3F3D56"></path>
                <ellipse id="Oval" fill="#3F3D56" cx="487.45727" cy="694.08665" rx="487.45727" ry="37.91334"></ellipse>
                <path d="M499.6437,87.4731598 C499.6437,87.4731598 510.47609,113.20007 486.10322,125.3865 C461.73035,137.57293 551.09752,160.59175 560.57586,130.80269 C560.57586,130.80269 536.203,121.32436 547.03538,92.8893498 L499.6437,87.4731598 Z" id="Path" fill="#FFB9B9"></path>
                <polygon id="Path" fill="#FFB9B9" points="528.756 618.93699 527.402 647.37199 550.42 651.43399 550.42 622.99899"></polygon>
                <polygon id="Path" fill="#FFB9B9" points="442.097 618.93699 443.451 647.37199 420.432 651.43399 420.432 622.99899"></polygon>
                <circle id="Oval" fill="#FFB9B9" cx="526.04763" cy="65.1313698" r="37.91334"></circle>
                <polygon id="Path" fill="#FFB9B9" points="578.856 340.00299 577.501 350.83499 584.272 376.56199 593.75 353.54399"></polygon>
                <path d="M428.55618,344.06525 L420.4319,440.20265 C420.4319,440.20265 410.95356,457.80528 416.36975,472.6998 C416.36975,472.6998 408.24546,493.01052 410.95356,499.7808 C413.66166,506.55108 415.0157,513.32128 412.30756,516.02938 C409.59942,518.73748 408.24541,594.56416 412.30756,601.33438 C416.36971,608.1046 419.0778,624.3532 419.0778,624.3532 C419.0778,624.3532 442.09661,629.76939 447.5128,614.87486 C452.92899,599.98033 450.22089,598.62629 455.63708,594.56414 C461.05327,590.50199 461.05327,533.63198 461.05327,533.63198 C461.05327,533.63198 454.28303,526.86174 458.34518,524.15365 C462.40733,521.44556 465.11542,524.15365 461.05327,517.38341 C456.99112,510.61317 450.22089,510.61317 456.99113,507.90507 C460.763659,506.443086 464.390406,504.629713 467.82351,502.48888 L507.09091,399.58123 C507.09091,399.58123 521.98543,514.67531 524.69353,520.0915 C527.40163,525.50769 531.46377,518.7375 527.40162,525.5077 C523.33947,532.2779 521.98543,528.21579 523.33948,532.27794 C524.69353,536.34009 515.21519,594.56414 520.63139,606.75057 C523.792553,613.794057 526.50604,621.030029 528.75567,628.41534 C528.75567,628.41534 550.42044,637.89368 553.12854,631.12344 C555.83664,624.3532 554.48254,612.16677 558.54473,610.81272 C562.60692,609.45867 566.66902,606.75057 566.66902,595.91819 C566.66902,585.08581 574.7933,532.27794 574.7933,532.27794 C574.7933,532.27794 565.31497,528.21579 568.02306,521.44555 C570.73115,514.67531 570.73116,516.02936 569.37711,510.61317 C568.02306,505.19698 565.31497,503.84293 568.02306,499.78078 C570.73115,495.71863 570.73116,483.53221 570.73116,483.53221 L586.97974,376.56242 L574.4321,340.00312 L428.55618,344.06525 Z" id="Path" fill="#2F2E41"></path>
                <path d="M530.10978,640.60175 C530.10978,640.60175 526.04764,636.53961 524.69359,640.60175 C523.33954,644.66389 523.33954,682.57724 523.33954,682.57724 C523.33954,682.57724 534.17192,690.70153 534.17192,694.76367 C534.17192,698.82581 542.29621,712.36629 561.25292,709.6582 C561.442493,709.63112 561.630037,709.60283 561.81555,709.57333 C567.379699,708.671101 572.195471,705.204376 574.816792,700.21414 C577.438112,695.223904 577.559679,689.291362 575.14499,684.19793 L555.83673,643.30985 C555.83673,643.30985 542.29621,629.76937 530.10978,640.60175 Z" id="Path" fill="#2F2E41"></path>
                <path d="M440.74262,640.60175 C440.74262,640.60175 444.80476,636.53961 446.15881,640.60175 C447.51286,644.66389 447.51286,682.57724 447.51286,682.57724 C447.51286,682.57724 436.68047,690.70153 436.68047,694.76367 C436.68047,698.82581 428.55618,712.36629 409.59947,709.6582 C409.40991,709.63112 409.222367,709.60283 409.03684,709.57333 C403.472691,708.671101 398.656919,705.204376 396.035598,700.21414 C393.414278,695.223904 393.292711,689.291362 395.7074,684.19793 L415.01566,643.30985 C415.01566,643.30985 428.55618,629.76937 440.74262,640.60175 Z" id="Path" fill="#2F2E41"></path>
                <path d="M497.15152,24.0651098 L490.37762,21.3532198 C490.37762,21.3532198 504.54115,5.75998981 524.24709,7.11598981 L518.70468,1.01420981 C518.70468,1.01420981 532.25246,-4.40947019 544.56858,9.82776981 C551.04292,17.3119998 558.53382,26.1092898 563.20358,36.0193498 L570.45794,36.0193498 L567.43027,42.6859898 L578.02727,49.3526498 L567.15053,48.1551398 C568.180773,53.910643 567.828161,59.8286043 566.12177,65.4210498 L566.41331,70.6903698 C566.41331,70.6903698 553.80565,51.1836998 553.80565,48.4718098 L553.80565,55.2514898 C553.80565,55.2514898 547.03176,49.1498098 547.03176,45.0820298 L543.33694,49.8278098 L541.48953,42.3701398 L518.70471,49.8278098 L522.39952,43.7261298 L508.23597,45.7599898 L513.77838,38.3023198 C513.77838,38.3023198 497.76744,47.1158898 497.15152,54.5735598 C496.53578,62.0311298 488.5304,71.5226898 488.5304,71.5226898 L484.83558,64.7430198 C484.83558,64.7430198 479.29317,34.2345698 497.15152,24.0651098 Z" id="Path" fill="#2F2E41"></path>
                <path d="M584.2717,149.082339 L599.35756,149.082339 C601.640802,149.082339 603.619774,150.662995 604.12168,152.89039 C606.44962,163.19854 612.44848,192.41853 611.35268,215.43069 C609.99863,243.86569 612.70673,264.17642 611.35268,268.23856 C609.99863,272.3007 611.35268,273.65475 611.35268,277.7169 C611.35268,281.77905 615.41482,279.07095 611.35268,284.48714 C607.29054,289.90333 607.29053,288.54928 607.29053,292.61143 C607.29053,296.67358 593.75006,358.95978 593.75006,358.95978 C593.75006,358.95978 584.44115,343.66003 574.20106,346.57078 L576.14741,291.25742 L578.85551,268.2386 L574.79336,227.61716 L584.2717,149.082339 Z" id="Path" fill="#3F3D56"></path>
                <path d="M518.60037,134.86484 C518.60037,134.86484 495.58156,134.02819 488.13429,124.29115 C488.13429,124.29115 440.06559,140.28103 434.6494,153.82151 C429.23321,167.36199 453.60607,228.29415 453.60607,228.29415 C453.60607,228.29415 411.63058,352.86656 431.94127,352.86656 C452.25196,352.86656 498.28962,369.11514 525.37058,359.6368 C542.15124,353.817046 559.352765,349.290329 576.82441,346.09632 C576.82441,346.09632 579.5325,309.53703 576.82441,302.76679 C574.11632,295.99655 567.34607,300.05869 571.40821,290.58035 C575.47035,281.10201 574.11631,279.74797 572.76226,275.68583 C571.40821,271.62369 575.47036,266.20749 575.47036,260.7913 C575.47036,255.37511 574.11636,243.18867 574.11636,243.18867 C574.11636,243.18867 610.67565,157.88367 602.55136,149.75937 C594.42707,141.63507 553.07236,125.98104 553.07236,125.98104 C553.07236,125.98104 541.61919,140.28099 518.60037,134.86484 Z" id="Path" fill="#3F3D56"></path>
                <circle id="Oval" fill="#0F72F9" cx="823.26116" cy="518.06041" r="29.78906"></circle>
                <ellipse id="Oval" fill="#FFFFFF" cx="802.95044" cy="518.06041" rx="6.77024" ry="14.89453"></ellipse>
                <circle id="Oval" fill="#3F3D56" cx="727.12376" cy="327.13965" r="29.78906"></circle>
                <ellipse id="Oval" fill="#FFFFFF" transform="translate(715.208798, 310.691049) rotate(-35.918530) translate(-715.208798, -310.691049) " cx="715.208798" cy="310.691049" rx="14.89453" ry="6.77024"></ellipse>
                <circle id="Oval" fill="#3F3D56" cx="802.95044" cy="163.29985" r="18.56442"></circle>
                <ellipse id="Oval" fill="#FFFFFF" transform="translate(795.525113, 153.049165) rotate(-35.918530) translate(-795.525113, -153.049165) " cx="795.525113" cy="153.049165" rx="9.28221" ry="4.21919"></ellipse>
                <circle id="Oval" fill="#3F3D56" cx="663.4835" cy="641.27878" r="18.56442"></circle>
                <ellipse id="Oval" fill="#FFFFFF" transform="translate(656.058133, 631.028109) rotate(-35.918530) translate(-656.058133, -631.028109) " cx="656.058133" cy="631.028109" rx="9.28221" ry="4.21919"></ellipse>
                <circle id="Oval" fill="#3F3D56" cx="820.55307" cy="382.65562" r="29.78906"></circle>
                <ellipse id="Oval" fill="#FFFFFF" cx="800.24235" cy="382.65562" rx="6.77024" ry="14.89453"></ellipse>
                <circle id="Oval" fill="#0F72F9" cx="724.41566" cy="191.73485" r="29.78906"></circle>
                <ellipse id="Oval" fill="#FFFFFF" transform="translate(712.500722, 175.286243) rotate(-35.918530) translate(-712.500722, -175.286243) " cx="712.500722" cy="175.286243" rx="14.89453" ry="6.77024"></ellipse>
                <circle id="Oval" fill="#0F72F9" cx="800.24235" cy="27.8950498" r="18.56442"></circle>
                <ellipse id="Oval" fill="#FFFFFF" transform="translate(792.817022, 17.644367) rotate(-35.918530) translate(-792.817022, -17.644367) " cx="792.817022" cy="17.6443667" rx="9.28221" ry="4.21919"></ellipse>
                <circle id="Oval" fill="#3F3D56" cx="660.77541" cy="505.87398" r="18.56442"></circle>
                <ellipse id="Oval" fill="#FFFFFF" transform="translate(653.350043, 495.623311) rotate(-35.918530) translate(-653.350043, -495.623311) " cx="653.350043" cy="495.623311" rx="9.28221" ry="4.21919"></ellipse>
                <rect id="Rectangle" fill="#F2F2F2" x="67.7024" y="383.92209" width="375.07129" height="227.65521"></rect>
                <path d="M412.30761,353.54358 C412.30761,353.54358 400.12118,417.18384 420.4319,411.76765 C440.74262,406.35146 431.26427,353.54358 431.26427,353.54358 L412.30761,353.54358 Z" id="Path" fill="#FFB9B9"></path>
                <path d="M443.45071,149.08234 L438.64181,151.48679 C434.847206,153.384102 432.159096,156.947806 431.37724,161.11764 L412.30761,262.82237 C412.30761,262.82237 406.89142,275.0088 406.89142,276.36285 C406.89142,277.7169 409.59951,277.71685 406.89142,281.77904 C404.18333,285.84123 400.12118,284.48714 402.82927,287.19523 C404.374952,288.600395 405.340647,290.531785 405.53737,292.61143 L408.24546,358.95978 C408.24546,358.95978 431.26428,352.18954 438.03452,358.95978 C438.03452,358.95978 431.26428,338.64906 435.32642,331.87878 C439.38856,325.1085 439.38857,315.6302 439.38857,315.6302 C439.38857,315.6302 436.68047,315.6302 443.45071,308.85996 C450.22095,302.08972 451.575,299.38163 450.22095,298.02758 C448.8669,296.67353 447.51286,284.4871 447.51286,283.13305 C447.51286,281.779 461.05333,191.05779 461.05333,191.05779 L443.45071,149.08234 Z" id="Path" fill="#3F3D56"></path>
                <circle id="Oval" fill="#0F72F9" cx="259.90311" cy="492.15161" r="82.10516"></circle>
                <path d="M331.39575,543.70116 C315.63159,543.70116 280.82006,527.51073 249.8601,508.54784 C211.44165,485.01659 174.12963,454.25976 180.65258,443.60936 C182.49633,440.5996 187.06616,439.81249 194.62573,441.20019 L194.08373,444.15136 C188.22973,443.07421 184.26831,443.45019 183.21118,445.17577 C181.66918,447.69335 185.06909,455.00194 199.23461,467.96386 C212.14379,479.77733 230.67944,493.28124 251.42748,505.98925 C272.17504,518.69725 292.62719,529.07325 309.01538,535.20604 C326.99877,541.93651 335.05395,541.64257 336.59497,539.12694 C337.65356,537.39843 336.18286,533.69433 332.55932,528.96288 L334.94116,527.13866 C339.62036,533.24901 340.99829,537.68261 339.15356,540.69335 C337.88696,542.76171 335.19409,543.70116 331.39575,543.70116 Z" id="Path" fill="#3F3D56"></path>
                <circle id="Oval" fill="#FFFFFF" cx="249.7686" cy="449.94873" r="16.79424"></circle>
                <circle id="Oval" fill="#FFFFFF" cx="254.63291" cy="542.01411" r="11.19616"></circle>
                <circle id="Oval" fill="#FFFFFF" cx="293.18741" cy="503.63056" r="11.19616"></circle>
                <path d="M79.09046,371.10689 C71.9221618,364.992807 62.0365565,363.167403 53.1574563,366.31829 C44.278356,369.469177 37.7547073,377.11766 36.0439058,386.38263 C34.3331042,395.6476 37.6950612,405.121487 44.86336,411.23557 L84.99204,445.46267 L119.21914,405.33399 C128.670692,394.252761 127.349578,377.607653 116.26835,368.1561 C105.187121,358.704548 88.5420128,360.025661 79.09046,371.10689 L79.09046,371.10689 Z" id="Path" fill="#FF6584"></path>
            </g>
        </g>
    </g>
</svg>