<?xml version="1.0" encoding="UTF-8"?>
<svg width="1600px" height="900px" viewBox="0 0 1600 900" version="1.1" xmlns="http://www.w3.org/2000/svg" xmlns:xlink="http://www.w3.org/1999/xlink">
    <title>Group 2</title>
    <g id="Page-1" stroke="none" stroke-width="1" fill="none" fill-rule="evenodd">
        <g id="Group-2">
            <rect id="Rectangle" fill="#F4F6F8" x="0" y="0" width="1600" height="900"></rect>
            <g id="undraw_designer_life_re_6ywf" transform="translate(341.000000, 113.000000)" fill-rule="nonzero">
                <polygon id="Path" fill="#FFB6B6" points="429.339786 535 444 528.498882 425.638649 468 404 477.594456"></polygon>
                <path d="M419,518.268364 L440.686162,503 L446.671578,512.619614 L477.254857,514.120061 C480.355207,514.271783 482.996365,516.415962 483.773563,519.412162 C484.550761,522.408362 483.283394,525.560321 480.645542,527.191589 L453.834665,543.773712 L443.2929,537.116629 L447.409027,547.747872 L437.300245,554 L419,518.268364 Z" id="Path" fill="#2F2E41"></path>
                <path d="M802.355314,419.847864 C802.355314,413.770165 800.315413,408.837704 797.810867,408.826365 L115.021833,408.826365 C112.505955,408.837704 110.477386,413.770165 110.466053,419.847864 L110.466053,670.034744 C110.46631,671.203877 109.579296,672.182125 108.416292,672.29533 C106.58366,672.471334 104.751046,672.635133 102.918452,672.786728 C102.873121,672.786728 102.82779,672.798067 102.78239,672.798067 C101.785173,672.888779 100.787888,672.956813 99.7905915,673.036186 L99.7792588,673.036186 C99.2662613,672.087188 98.7592098,671.129913 98.2581042,670.16436 C98.0886459,669.839081 98,669.477704 98,669.110888 L98,405.549408 C98,403.871238 98.0679967,402.181728 98.1813246,400.514897 C98.3430929,398.226032 98.626816,395.947436 99.0312835,393.688825 C100.946524,383.154903 105.275649,376.022678 110.194078,376 L802.627312,376 C803.345129,376.004777 804.054515,376.155218 804.712545,376.442221 C805.679039,376.870154 806.552859,377.482548 807.285087,378.24512 C808.279065,379.278988 809.129131,380.442272 809.812299,381.703512 C812.237515,385.978311 813.971431,392.350824 814.583402,399.766523 C814.583402,399.834557 814.594735,399.902591 814.594735,399.970625 C814.753394,401.807542 814.832723,403.678475 814.82139,405.549408 L814.980049,429.848864 L815.082044,444.340094 L815.38803,489.809444 L815.501357,505.956166 L816,671.732202 L816,671.732202 C816,672.984672 814.985228,674 813.733443,674 L804.621883,674 C803.370098,674 802.355325,672.984672 802.355325,671.732202 L802.355314,419.847864 Z" id="Path" fill="#E6E6E6"></path>
                <path d="M616.090645,263 L542.899257,263 C540.743179,263.003274 538.997705,264.760132 539.000002,266.924686 L539.000002,383 L620.000002,383 L620.000002,266.924697 C620.000002,265.883631 619.588845,264.885046 618.855579,264.148902 C618.122314,263.412759 617.127636,263 616.090645,263 Z M579.741174,328.952574 C574.977183,328.930295 571.12069,325.05867 571.098467,320.275955 L571.098467,306.887674 C571.103914,302.099564 574.971778,298.220931 579.741146,298.220931 C584.510515,298.220931 588.378378,302.099564 588.383825,306.887674 L588.383825,320.275955 C588.361682,325.058681 584.505177,328.930344 579.741174,328.952574 Z" id="Shape" fill="#2F2E41"></path>
                <path d="M539,379 L539,389.874175 C539.00249,391.047261 539.983388,391.997624 541.194128,392 L618.80594,392 C620.015179,391.994156 620.993969,391.045807 621,389.874175 L621,379 L539,379 Z" id="Path" fill="#3F3D56"></path>
                <path d="M444.842574,100.783007 C443.124603,105.115765 439.579376,108.463577 435.160848,109.925609 C430.74232,111.387641 425.904376,110.813709 421.948817,108.358248 L317.873381,181 L315,152.051467 L417.330693,85.6260069 C421.990617,79.0983783 430.787062,77.0943787 437.806062,80.9613238 C444.825061,84.828269 447.84803,93.3438841 444.842586,100.783007 L444.842574,100.783007 Z" id="Path" fill="#FFB6B6"></path>
                <path d="M211.527939,146.642214 C211.527939,146.642214 200.291984,163.283972 217.923776,178.010877 C235.555568,192.737782 307.020312,189.807956 318.553052,189.681375 C330.085792,189.554794 383,134.687726 383,134.687726 L382.653662,103 L318.767174,140.996858 L211.527939,146.642214 Z" id="Path" fill="#0F72F9"></path>
                <path d="M205.548454,257.428083 L206.686195,278.827713 C206.686195,278.827713 203.328084,297.783798 206.089905,301.874495 C208.830939,305.944738 284.103022,312 284.103022,312 C284.103022,312 281.743143,280.084783 286,257 L205.548454,257.428083 Z" id="Path" fill="#FFB6B6"></path>
                <path d="M435,476.670152 L406.162102,502 L349.641847,386.012202 C293.594516,395.684317 240.71896,398.782768 194.983871,387.082375 C179.499088,383.17554 170.033713,367.132078 173.842402,351.248234 C174.020411,350.505767 174.226253,349.771173 174.45993,349.044454 C179.933545,332.28729 194.261508,320.430699 205.550104,302 L288.005851,303.256776 L278.796121,335.142041 L358.896125,324.741544 C375.004483,322.649978 389.715901,334.349325 391.754907,350.872766 C391.862551,351.745241 391.932886,352.621277 391.965914,353.500873 L435,476.670152 Z" id="Path" fill="#2F2E41"></path>
                <circle id="Oval" fill="#FFB6B6" cx="237.5" cy="78.5" r="33.5"></circle>
                <path d="M217.558752,124 L248.369698,127.616588 C251.03321,127.929233 253.204726,129.89317 253.777299,132.507267 L258.677202,154.877992 L289.221905,190.766505 C289.221905,190.766505 300.19018,211.285394 296.077141,234.540184 C293.601933,248.543527 289.319839,262.168164 283.337653,275.074297 C283.337653,275.074297 208.220914,305.725623 205.478842,301.621856 C202.73677,297.51809 201.846874,278.877694 201.846874,278.877694 L192.182809,171.608519 C191.062814,160.16459 195.129579,148.820398 203.269926,140.681135 C205.708217,138.28826 208.114539,136.613245 210.073169,136.613245 C214.497433,136.46441 213.929864,126.529509 217.558752,124 Z" id="Path" fill="#0F72F9"></path>
                <polygon id="Path" fill="#FFB6B6" points="284 579.039286 298.380634 586 333 533.273888 311.77482 523"></polygon>
                <path d="M318.210083,568 L288.950495,556.871711 L329.108528,436.043876 C274.551529,420.019861 233.398873,394.209475 197.467554,363.572494 C185.278141,353.248539 176.136726,339.990204 186.518009,327.431439 C187.003315,326.844328 187.510092,326.276598 188.03834,325.728248 C200.297148,313.120221 231.408654,315.545993 249.621455,304 L290.354068,347.565342 L287.801846,359.23557 L364.271916,385.20377 C379.650278,390.426056 387.72985,407.393757 382.31816,423.102178 C382.032395,423.931605 381.711571,424.747794 381.355687,425.550744 L318.210083,568 Z" id="Path" fill="#2F2E41"></path>
                <path d="M283.635454,571 L308.121613,581.290203 L303.12834,591.538601 L318.09422,618.385263 C319.611709,621.106608 319.192795,624.503944 317.060289,626.770305 C314.927782,629.036666 311.577239,629.645392 308.790735,628.272715 L280.467244,614.322094 L280.524369,601.780259 L273.679084,610.97862 L263,605.718684 L283.635454,571 Z" id="Path" fill="#2F2E41"></path>
                <path d="M235.431882,386.378333 C231.526229,383.836792 228.948379,379.698053 228.391984,375.075774 C227.835589,370.453495 229.357803,365.822492 232.549027,362.428884 L182,246 L210.941825,248.906352 L255.744494,362.395091 C261.217697,368.255753 261.436819,377.278541 256.25454,383.397308 C251.072261,389.516075 242.126613,390.796781 235.431882,386.378389 L235.431882,386.378333 Z" id="Path" fill="#FFB6B6"></path>
                <path d="M236.22689,149.345304 C236.22689,149.345304 222.207245,135.020239 204.351817,149.417683 C186.496388,163.815126 175.233653,234.562066 173.078253,245.910465 C170.922854,257.258863 214.008975,320.069578 214.008975,320.069578 L245,326 L220.544918,255.754536 L236.22689,149.345304 Z" id="Path" fill="#0F72F9"></path>
                <path d="M738.803447,81 L424.196553,81 C418.568891,81.0089631 414.008989,85.5748893 414,91.2100239 L414,303.789976 C414.005412,309.426597 418.567407,313.994618 424.196553,314 L738.803447,314 C744.432593,313.994618 748.994588,309.426597 749,303.789976 L749,91.2100353 C748.991017,85.5748962 744.431114,81.0089631 738.803447,81 Z" id="Path" fill="#3F3D56"></path>
                <path d="M735.551312,89 L426.448688,89 C423.437751,89.0065464 421,91.4515728 421,94.4655917 L421,301.545748 C421.005182,304.555897 423.44161,306.994813 426.448688,307 L735.551312,307 C738.55839,306.994813 740.994818,304.555897 741,301.545748 L741,94.4655917 C741,91.4515728 738.562249,89.0065464 735.551312,89 L735.551312,89 Z" id="Path" fill="#FFFFFF"></path>
                <path d="M675.611125,396 L491.388923,396 C490.367653,396 489.400841,395.547455 488.757355,394.7682 C488.113868,393.988945 487.862336,392.966096 488.072708,391.984104 L490.931201,378.643868 C491.26639,377.106208 492.646518,376.005713 494.246871,376 L672.753132,376 C674.353485,376.005713 675.733613,377.106208 676.068802,378.643868 L678.927294,391.984104 C679.137663,392.966096 678.886129,393.988942 678.242643,394.768196 C677.599157,395.547449 676.632348,396 675.61108,396 L675.611125,396 Z" id="Path" fill="#2F2E41"></path>
                <rect id="Rectangle" fill="#3F3D56" x="496" y="379" width="6" height="3" rx="0.48819"></rect>
                <rect id="Rectangle" fill="#3F3D56" x="507" y="379" width="6" height="3" rx="0.48819"></rect>
                <rect id="Rectangle" fill="#3F3D56" x="518" y="379" width="6" height="3" rx="0.48819"></rect>
                <rect id="Rectangle" fill="#3F3D56" x="530" y="379" width="6" height="3" rx="0.48819"></rect>
                <rect id="Rectangle" fill="#3F3D56" x="541" y="379" width="6" height="3" rx="0.48819"></rect>
                <rect id="Rectangle" fill="#3F3D56" x="552" y="379" width="6" height="3" rx="0.48819"></rect>
                <rect id="Rectangle" fill="#3F3D56" x="564" y="379" width="6" height="3" rx="0.48819"></rect>
                <rect id="Rectangle" fill="#3F3D56" x="575" y="379" width="6" height="3" rx="0.48819"></rect>
                <rect id="Rectangle" fill="#3F3D56" x="586" y="379" width="6" height="3" rx="0.48819"></rect>
                <rect id="Rectangle" fill="#3F3D56" x="598" y="379" width="6" height="3" rx="0.48819"></rect>
                <rect id="Rectangle" fill="#3F3D56" x="609" y="379" width="6" height="3" rx="0.48819"></rect>
                <rect id="Rectangle" fill="#3F3D56" x="620" y="379" width="6" height="3" rx="0.48819"></rect>
                <rect id="Rectangle" fill="#3F3D56" x="632" y="379" width="6" height="3" rx="0.48819"></rect>
                <rect id="Rectangle" fill="#3F3D56" x="643" y="379" width="6" height="3" rx="0.48819"></rect>
                <rect id="Rectangle" fill="#3F3D56" x="654" y="379" width="6" height="3" rx="0.48819"></rect>
                <rect id="Rectangle" fill="#3F3D56" x="666" y="379" width="6" height="3" rx="0.48819"></rect>
                <rect id="Rectangle" fill="#3F3D56" x="495" y="384" width="6" height="3" rx="0.48819"></rect>
                <rect id="Rectangle" fill="#3F3D56" x="507" y="384" width="6" height="3" rx="0.48819"></rect>
                <rect id="Rectangle" fill="#3F3D56" x="518" y="384" width="6" height="3" rx="0.48819"></rect>
                <rect id="Rectangle" fill="#3F3D56" x="529" y="384" width="6" height="3" rx="0.48819"></rect>
                <rect id="Rectangle" fill="#3F3D56" x="541" y="384" width="6" height="3" rx="0.48819"></rect>
                <rect id="Rectangle" fill="#3F3D56" x="552" y="384" width="6" height="3" rx="0.48819"></rect>
                <rect id="Rectangle" fill="#3F3D56" x="563" y="384" width="6" height="3" rx="0.48819"></rect>
                <rect id="Rectangle" fill="#3F3D56" x="575" y="384" width="6" height="3" rx="0.48819"></rect>
                <rect id="Rectangle" fill="#3F3D56" x="586" y="384" width="6" height="3" rx="0.48819"></rect>
                <rect id="Rectangle" fill="#3F3D56" x="597" y="384" width="6" height="3" rx="0.48819"></rect>
                <rect id="Rectangle" fill="#3F3D56" x="609" y="384" width="6" height="3" rx="0.48819"></rect>
                <rect id="Rectangle" fill="#3F3D56" x="620" y="384" width="6" height="3" rx="0.48819"></rect>
                <rect id="Rectangle" fill="#3F3D56" x="631" y="384" width="6" height="3" rx="0.48819"></rect>
                <rect id="Rectangle" fill="#3F3D56" x="643" y="384" width="6" height="3" rx="0.48819"></rect>
                <rect id="Rectangle" fill="#3F3D56" x="654" y="384" width="6" height="3" rx="0.48819"></rect>
                <rect id="Rectangle" fill="#3F3D56" x="665" y="384" width="6" height="3" rx="0.48819"></rect>
                <rect id="Rectangle" fill="#3F3D56" x="550" y="391" width="45" height="3" rx="0.48819"></rect>
                <path d="M714.582411,654.958841 L705.903848,640.953354 L704.170387,648.95658 C703.866468,650.358259 703.56255,651.782546 703.281144,653.195529 C700.816083,651.081571 698.193322,649.126025 695.627112,647.249696 C687.747742,641.507243 679.872038,635.757344 672,630 L674.46505,644.355907 C675.984755,653.195608 677.572054,662.216012 681.33147,670.298218 C681.748075,671.213899 682.198201,672.118265 682.682433,673 L719.310247,673 C719.604863,672.18092 719.808705,671.331732 719.918084,670.46781 C719.92721,670.411782 719.930889,670.354995 719.92907,670.298252 C720.503488,664.815776 717.486612,659.649967 714.582411,654.958841 Z" id="Path" fill="#F0F0F0"></path>
                <path d="M215.582411,654.958841 L206.903848,640.953354 L205.170387,648.95658 C204.866468,650.358259 204.56255,651.782546 204.281144,653.195529 C201.816026,651.081571 199.193322,649.126025 196.627112,647.249696 C188.747742,641.507243 180.872038,635.757344 173,630 L175.46505,644.355907 C176.984755,653.195608 178.572054,662.216012 182.33147,670.298218 C182.748075,671.213899 183.198201,672.118265 183.682433,673 L220.310247,673 C220.604863,672.18092 220.808705,671.331732 220.918084,670.46781 C220.92721,670.411782 220.930889,670.354995 220.92907,670.298252 C221.503488,664.815776 218.486612,659.649967 215.582411,654.958841 Z" id="Path" fill="#F0F0F0"></path>
                <path d="M916.655349,674.657087 L604.344651,675 C603.601391,674.997878 603,674.403691 603,673.671456 C603,672.939222 603.601391,672.345035 604.344651,672.342913 L916.655349,672 C917.398609,672.002122 918,672.596309 918,673.328544 C918,674.060778 917.398609,674.654965 916.655349,674.657087 L916.655349,674.657087 Z" id="Path" fill="#CACACA"></path>
                <path d="M313.655349,674.657087 L1.34465115,675 C0.601391309,674.997878 0,674.403691 0,673.671456 C0,672.939222 0.601391309,672.345035 1.34465115,672.342913 L313.655349,672 C314.398609,672.002122 315,672.596309 315,673.328544 C315,674.060778 314.398609,674.654965 313.655349,674.657087 L313.655349,674.657087 Z" id="Path" fill="#CACACA"></path>
                <path d="M202.15179,48.0218462 C196.737993,49.6299331 191.687386,45.1114355 187.919292,40.8307535 L189.258554,42.4161913 C180.394455,48.6446968 175.094154,58.7914984 171.655201,69.0628701 C168.216249,79.3229173 166.298153,90.069977 162.416562,100.182748 C158.534972,110.284252 152.269949,120.057343 142.67947,125.09677 C129.831632,131.846205 114.089627,128.777251 100.424613,123.907692 C100.243018,123.839744 100.072773,123.783122 99.8911778,123.715174 C105.425776,113.399825 108.815219,102.075333 109.856196,90.4209815 C104.234763,101.371576 96.1276016,110.860699 86.1807649,118.132169 C77.2518811,114.082353 68.6661872,109.318032 60.5077898,103.885878 C55.2301889,100.363941 49.6688459,95.8114699 49.0559632,89.5036926 C48.4317308,83.2412134 53.1191485,77.522313 58.6464424,74.5099812 C64.1737363,71.4976495 70.5295569,70.4784395 76.5675864,68.6665107 C82.5942662,66.8659064 88.7457925,63.9101974 91.9123531,58.4744108 C99.210197,45.9721017 86.9298438,28.339769 94.7611227,16.1545474 C98.6200137,10.1638576 106.110802,7.76305184 113.056806,6.09834219 C123.65883,3.56803117 134.420161,1.75574549 145.267197,0.673880168 C154.789578,-0.277382484 164.62975,-0.628443701 173.686794,2.42918625 C182.743838,5.4868162 190.961006,12.5873124 192.901802,21.9413952 C198.190752,24.7159112 203.786144,27.7848657 206.623564,33.050784 C209.460984,38.305355 207.883367,46.3231629 202.15179,48.0218462 Z" id="Path" fill="#2F2E41"></path>
                <path d="M194.496564,46.2861717 C189.336667,52.7620741 186.527914,59.7653882 186.527914,63.9594541 C175.808813,83.5870231 191.137307,100.446258 210.728767,111.185095 C218.542806,115.490847 227.565606,117.066792 236.372976,115.664179 L237.192625,112.158838 L238.303099,115.316426 C238.303099,115.316426 251.058502,157.524006 255.265876,160 C253.669301,152.488469 251.840442,117.709042 250.951634,110.378269 C249.721154,100.40067 254.010555,85.5465612 257.104721,76.5134025 C259.023261,70.9461783 260.007876,65.0989608 260.018569,59.2092744 L260.018569,58.9517708 L263.031421,68.6472385 L274,63.9594541 C271.95936,52.2330327 274,38.920845 249.535424,40.0754013 C236.303839,30.9584566 224.651873,29.5697115 215.080548,32.1554887 C213.845323,30.242218 206.72261,33.8257087 204.664359,32.8182619" id="Path" fill="#2F2E41"></path>
                <path d="M741,94.4655917 L741,301.545748 C740.994824,304.555897 738.56109,306.994813 735.557337,307 L626.681449,307 C614.637057,295.80627 604.755752,282.482695 597.533217,267.697633 C597.057914,266.745124 596.605301,265.781274 596.17538,264.806086 C589.594737,250.495668 585.609881,235.125143 584.40746,219.41446 C584.328253,218.450611 584.260361,217.486762 584.2151,216.511573 C584.068001,214.016905 584,211.488218 584,208.948192 C583.978499,192.05515 587.161809,175.311995 593.380499,159.610455 C593.753904,158.635267 594.14994,157.671417 594.557291,156.707568 C607.072576,127.239668 629.687054,103.225723 658.319049,89 L735.557337,89 C738.564945,89.0065464 741,91.4515728 741,94.4655917 Z" id="Path" fill="#0F72F9"></path>
                <path d="M720.872804,117 L431.127196,117 C430.500698,116.988055 430,116.543857 430,116 C430,115.456143 430.500698,115.011945 431.127196,115 L720.872804,115 C721.499302,115.011945 722,115.456143 722,116 C722,116.543857 721.499302,116.988055 720.872804,117 L720.872804,117 Z" id="Path" fill="#CACACA"></path>
                <ellipse id="Oval" fill="#3F3D56" cx="450.5" cy="102" rx="6.5" ry="7"></ellipse>
                <ellipse id="Oval" fill="#3F3D56" cx="473.5" cy="102" rx="6.5" ry="7"></ellipse>
                <ellipse id="Oval" fill="#3F3D56" cx="497.5" cy="102" rx="6.5" ry="7"></ellipse>
                <path d="M706.771814,97 L690.228186,97 C689.545995,97.0161109 689,97.682942 689,98.5 C689,99.317058 689.545995,99.9838891 690.228186,100 L706.771814,100 C707.454005,99.9838891 708,99.317058 708,98.5 C708,97.682942 707.454005,97.0161109 706.771814,97 L706.771814,97 Z" id="Path" fill="#3F3D56"></path>
                <path d="M706.771814,101 L690.228186,101 C689.545995,101.016111 689,101.682942 689,102.5 C689,103.317058 689.545995,103.983889 690.228186,104 L706.771814,104 C707.454005,103.983889 708,103.317058 708,102.5 C708,101.682942 707.454005,101.016111 706.771814,101 L706.771814,101 Z" id="Path" fill="#3F3D56"></path>
                <path d="M706.771814,106 L690.228186,106 C689.545995,106.016111 689,106.682942 689,107.5 C689,108.317058 689.545995,108.983889 690.228186,109 L706.771814,109 C707.454005,108.983889 708,108.317058 708,107.5 C708,106.682942 707.454005,106.016111 706.771814,106 L706.771814,106 Z" id="Path" fill="#3F3D56"></path>
                <rect id="Rectangle" fill="#0F72F9" x="476" y="184" width="46" height="10" rx="4.33898"></rect>
                <rect id="Rectangle" fill="#E6E6E6" x="453" y="204" width="93" height="10" rx="4.33898"></rect>
                <rect id="Rectangle" fill="#E6E6E6" x="453" y="224" width="93" height="10" rx="4.33898"></rect>
                <path d="M460,295.099333 C460.006704,299.162244 459.291817,303.193277 457.88942,307 L426.399821,307 C423.419712,306.994801 421.005135,304.550068 421,301.532741 L421,261.431927 C422.759451,261.143833 424.538927,260.999393 426.321237,261 C435.253558,260.999438 443.820195,264.591855 450.1363,270.986842 C456.452405,277.38183 460.000509,286.055456 460,295.099333 Z" id="Path" fill="#0F72F9"></path>
                <path d="M741,159.588648 L741,156.682444 L692.466987,156.682444 L692.466987,123 L689.582773,123 L689.582773,156.682444 L633.958126,156.682444 L633.958126,123 L631.073969,123 L631.073969,156.682444 L594.337724,156.682444 C593.930549,157.647395 593.534684,158.612345 593.16144,159.588648 L631.073969,159.588648 L631.073969,216.554777 L584,216.554777 C584.045242,217.531079 584.113104,218.49603 584.192277,219.46098 L631.073969,219.46098 L631.073969,264.904467 L595.955114,264.904467 C596.38491,265.880769 596.837327,266.84572 597.312365,267.799318 L631.073969,267.799318 L631.073969,306 L633.958126,306 L633.958126,267.799318 L689.582773,267.799318 L689.582773,306 L692.466987,306 L692.466987,267.799318 L741,267.799318 L741,264.904467 L692.466987,264.904467 L692.466987,219.46098 L741,219.46098 L741,216.554777 L692.466987,216.554777 L692.466987,159.588648 L741,159.588648 Z M689.58283,264.904467 L633.958183,264.904467 L633.958183,219.46098 L689.58283,219.46098 L689.58283,264.904467 Z M689.58283,216.554777 L633.958183,216.554777 L633.958183,159.588648 L689.58283,159.588648 L689.58283,216.554777 Z" id="Shape" fill="#000000" opacity="0.2"></path>
                <path d="M702.89882,285.437812 C701.619323,285.49646 700.439437,284.751489 699.945319,283.572996 C699.451201,282.394502 699.748168,281.033674 700.688691,280.166559 L700.897652,279.338037 C700.870134,279.271695 700.842457,279.205405 700.81462,279.139169 C699.528004,276.108411 696.542985,274.143972 693.242865,274.156202 C689.942745,274.168431 686.972447,276.154941 685.708452,279.195151 C683.237804,285.129575 680.092139,291.074139 679.317611,297.34878 C678.976488,300.12232 679.120386,302.933854 679.742905,305.658341 C673.939929,293.034232 670.926595,279.313344 670.907206,265.42595 C670.905985,261.94108 671.100128,258.458867 671.488727,254.995613 C671.8099,252.156484 672.255465,249.337545 672.825422,246.538795 C675.9357,231.353201 682.613592,217.119975 692.310685,205.008004 C697.004055,202.454124 700.79965,198.526836 703.185985,193.75537 C704.0505,192.040197 704.661507,190.209254 705,188.319493 C704.470585,188.388745 703.932452,188.432015 703.403026,188.466613 C703.238092,188.475228 703.064519,188.483912 702.899584,188.492595 L702.837379,188.495372 C701.648785,188.548557 700.539552,187.901124 700.003973,186.841579 C699.468394,185.782034 699.606195,184.507667 700.35597,183.586358 C700.584563,183.305798 700.813296,183.025376 701.042171,182.74509 C701.389385,182.312267 701.745238,181.888116 702.092384,181.455373 C702.132455,181.414262 702.17013,181.370894 702.205224,181.325484 C702.604533,180.832092 703.003717,180.347373 703.403026,179.853947 C702.67423,178.725875 701.69401,177.78093 700.538798,177.092796 C696.537581,174.755716 691.017458,176.374349 688.127176,179.983847 C685.228268,183.593266 684.681496,188.657048 685.688253,193.16671 C686.67834,197.004041 688.316111,200.645322 690.531407,203.934568 C690.314378,204.211576 690.088699,204.479913 689.871739,204.756932 C685.905207,209.843532 682.448088,215.305572 679.549955,221.064733 C680.254743,214.612795 679.41357,208.086165 677.095626,202.021695 C674.74641,196.369845 670.343157,191.60984 666.465564,186.723826 C661.807942,180.854979 652.257068,183.416283 651.436494,190.855965 C651.428551,190.92799 651.420799,191 651.413237,191.071984 C651.98915,191.396033 652.552934,191.739968 653.104586,192.103789 C654.522935,193.048862 655.21412,194.765311 654.84515,196.426205 C654.476179,198.0871 653.122728,199.351792 651.436847,199.610993 L651.352492,199.623978 C651.557671,201.694118 651.920351,203.745708 652.437397,205.761014 C655.466164,217.134579 663.11287,226.733691 673.537048,232.247967 C673.875556,232.421069 674.205424,232.594171 674.543931,232.758658 C671.632172,240.987912 669.805748,249.559828 669.110595,258.258816 C668.717038,263.390984 668.74026,268.546486 669.180035,273.67492 L669.153994,273.493135 C668.042933,267.790438 664.992533,262.644851 660.517922,258.925321 C653.872016,253.480749 644.482585,251.47584 637.312833,247.09947 C635.757046,246.103317 633.762901,246.098478 632.202271,247.087069 C630.641642,248.07566 629.798411,249.877853 630.041255,251.705698 C630.050864,251.769431 630.060636,251.833125 630.070572,251.896782 C631.139368,252.330913 632.18001,252.83102 633.186452,253.394198 C633.762404,253.718308 634.326191,254.062243 634.877813,254.426004 C636.29617,255.371085 636.987358,257.087546 636.618385,258.748451 C636.249413,260.409357 634.895954,261.674058 633.210063,261.933265 L633.125616,261.946182 C633.064883,261.954865 633.012776,261.963549 632.952157,261.972232 C634.778341,266.320778 637.341457,270.323385 640.52924,273.804741 C648.488247,282.321823 659.615376,287.190827 671.289124,287.264634 L671.297831,287.264634 C672.86575,294.059516 675.137505,300.673496 678.07649,307 L702.292022,307 C702.378877,306.731664 702.456956,306.454644 702.535092,306.186273 C700.293645,306.326815 698.043376,306.193124 695.834513,305.788185 C697.631182,303.589552 699.427782,301.373575 701.224451,299.175044 C701.264521,299.133953 701.302196,299.090604 701.33729,299.045212 C702.248611,297.919993 703.168651,296.803378 704.079972,295.678148 L704.080463,295.676759 C704.129046,292.227512 703.732158,288.786379 702.899584,285.438211 L702.89882,285.437812 Z M669.804967,279.257985 L669.596633,278.790632 C669.605341,278.453044 669.605341,278.115455 669.596633,277.769252 C669.596633,277.673949 669.579299,277.578783 669.579299,277.483594 C669.657378,278.080846 669.726819,278.678156 669.813605,279.275397 L669.804967,279.257985 Z" id="Shape" fill="#2F2E41"></path>
            </g>
        </g>
    </g>
</svg>