<?xml version="1.0" encoding="UTF-8"?>
<svg width="1600px" height="900px" viewBox="0 0 1600 900" version="1.1" xmlns="http://www.w3.org/2000/svg" xmlns:xlink="http://www.w3.org/1999/xlink">
    <title>Group 2</title>
    <g id="Page-1" stroke="none" stroke-width="1" fill="none" fill-rule="evenodd">
        <g id="Group-2">
            <rect id="Rectangle" fill="#F4F6F8" x="0" y="0" width="1600" height="900"></rect>
            <g id="undraw_urban_design_kpu8" transform="translate(339.000000, 86.000000)" fill-rule="nonzero">
                <circle id="Oval" fill="#FF6584" cx="209.62933" cy="318.19554" r="55.04156"></circle>
                <path d="M550.61977,380.51787 C550.61977,488.88235 486.19877,526.71918 406.73152,526.71918 C327.26427,526.71918 262.84326,488.88235 262.84326,380.51787 C262.84326,272.15339 406.73152,134.29666 406.73152,134.29666 C406.73152,134.29666 550.61977,272.15338 550.61977,380.51787 Z" id="Path" fill="#0F72F9"></path>
                <polygon id="Path" fill="#3F3D56" points="401.49 510.143 402.963 419.451 464.292 307.253 403.194 405.225 403.857 364.446 446.124 283.272 404.032 353.655 404.032 353.655 405.224 280.313 450.485 215.688 405.411 268.78 406.155 134.297 401.477 312.328 401.862 304.984 355.844 234.547 401.124 319.082 396.836 400.993 396.708 398.819 343.659 324.694 396.548 406.499 396.011 416.743 395.915 416.897 395.959 417.738 385.081 625.552 399.615 625.552 401.359 518.212 454.118 436.607"></polygon>
                <path d="M689.45199,482.86863 C689.45199,591.23311 625.03099,629.06994 545.56373,629.06994 C466.09647,629.06994 401.67548,591.23314 401.67548,482.86863 C401.67548,374.50412 545.56373,236.64742 545.56373,236.64742 C545.56373,236.64742 689.45199,374.50414 689.45199,482.86863 Z" id="Path" fill="#3F3D56"></path>
                <polygon id="Path" fill="#F2F2F2" points="540.322 612.493 541.796 521.802 603.124 409.604 542.027 507.575 542.689 466.797 584.957 385.623 542.864 456.005 542.864 456.006 544.056 382.663 589.317 318.039 544.243 371.131 544.988 236.647 540.309 414.679 540.694 407.335 494.676 336.898 539.956 421.433 535.668 503.343 535.54 501.169 482.491 427.045 535.38 508.85 534.844 519.094 534.747 519.248 534.791 520.089 523.913 727.902 538.447 727.902 540.191 620.562 592.95 538.958"></polygon>
                <path d="M418.88117,482.86863 C418.88117,591.23311 354.46017,629.06994 274.99291,629.06994 C195.52565,629.06994 131.10466,591.23314 131.10466,482.86863 C131.10466,374.50412 274.99293,236.64742 274.99293,236.64742 C274.99293,236.64742 418.88117,374.50414 418.88117,482.86863 Z" id="Path" fill="#3F3D56"></path>
                <polygon id="Path" fill="#F2F2F2" points="269.751 612.493 271.225 521.802 332.554 409.604 271.456 507.575 272.118 466.797 314.386 385.623 272.294 456.005 272.294 456.006 273.485 382.663 318.746 318.039 273.672 371.131 274.417 236.647 269.739 414.679 270.123 407.335 224.106 336.898 269.385 421.433 265.097 503.343 264.97 501.169 211.92 427.045 264.809 508.85 264.273 519.094 264.177 519.248 264.221 520.089 253.342 727.902 267.876 727.902 269.62 620.562 322.38 538.958"></polygon>
                <path d="M410.39475,726.987632 C268.483659,726.987632 146.334357,626.742268 118.648526,487.558028 C90.9626941,348.373789 165.45123,209.014836 296.559891,154.707592 C427.668552,100.400348 578.881716,146.270151 657.723393,264.264845 C736.56507,382.259538 721.076735,539.515925 620.73044,639.86222 C565.068185,695.829436 489.328707,727.201905 410.39475,726.987632 Z M410.39475,134.33667 C247.62707,134.33667 115.20544,266.75775 115.20544,429.52598 C115.20544,592.29421 247.62707,724.71584 410.39475,724.71584 C573.16243,724.71584 705.58406,592.29421 705.58406,429.52598 C705.58406,266.75775 573.16243,134.33667 410.39475,134.33667 Z" id="Shape" fill="#2F2E41"></path>
                <polygon id="Path" fill="#F2F2F2" points="653.626 599.234 653.626 725.905 167.207 725.905 167.207 599.234 410.416 472.562 410.923 472.825"></polygon>
                <polygon id="Path" fill="#000000" opacity="0.1" points="653.626 599.234 653.626 725.905 410.923 725.905 410.923 472.825"></polygon>
                <polygon id="Path" fill="#3F3D56" points="389.642 550.085 371.402 556.972 371.402 529.818 389.642 521.823"></polygon>
                <polygon id="Path" fill="#3F3D56" points="187.981 626.088 181.901 628.387 181.901 611.901 187.981 609.213"></polygon>
                <polygon id="Path" fill="#3F3D56" points="209.262 618.994 202.168 621.653 202.168 603.794 209.262 600.68"></polygon>
                <polygon id="Path" fill="#3F3D56" points="232.569 609.874 224.462 612.923 224.462 593.66 232.569 590.092"></polygon>
                <polygon id="Path" fill="#3F3D56" points="260.944 598.727 250.81 602.552 250.81 582.513 260.944 578.067"></polygon>
                <polygon id="Path" fill="#3F3D56" points="295.398 585.553 283.238 590.149 283.238 568.326 295.398 562.992"></polygon>
                <polygon id="Path" fill="#3F3D56" points="336.947 570.352 322.76 575.697 322.76 551.098 336.947 544.879"></polygon>
                <polygon id="Path" fill="#3F3D56" points="187.981 659.529 181.901 661.058 181.901 644.329 187.981 642.406"></polygon>
                <polygon id="Path" fill="#3F3D56" points="209.262 654.463 202.168 656.239 202.168 638.249 209.262 636.013"></polygon>
                <polygon id="Path" fill="#3F3D56" points="232.569 648.382 224.462 650.419 224.462 631.155 232.569 628.598"></polygon>
                <polygon id="Path" fill="#3F3D56" points="260.944 641.289 250.81 643.834 250.81 623.048 260.944 619.859"></polygon>
                <polygon id="Path" fill="#3F3D56" points="295.398 632.168 283.238 635.237 283.238 612.914 295.398 609.089"></polygon>
                <polygon id="Path" fill="#3F3D56" points="336.947 622.035 321.746 625.858 321.746 600.754 336.947 595.971"></polygon>
                <polygon id="Path" fill="#3F3D56" points="389.642 608.861 371.402 613.446 371.402 585.553 389.642 579.831"></polygon>
                <polygon id="Path" fill="#3F3D56" points="389.642 666.623 371.402 668.945 371.402 641.289 389.642 637.839"></polygon>
                <polygon id="Path" fill="#3F3D56" points="187.981 691.957 181.901 692.739 181.901 676.757 187.981 675.598"></polygon>
                <polygon id="Path" fill="#3F3D56" points="209.262 689.931 202.168 690.825 202.168 673.717 209.262 672.386"></polygon>
                <polygon id="Path" fill="#3F3D56" points="232.569 686.89 224.462 687.916 224.462 668.65 232.569 667.105"></polygon>
                <polygon id="Path" fill="#3F3D56" points="260.944 682.837 250.81 684.132 250.81 663.583 260.944 661.65"></polygon>
                <polygon id="Path" fill="#3F3D56" points="295.398 678.783 283.238 680.326 283.238 657.503 295.398 655.187"></polygon>
                <polygon id="Path" fill="#3F3D56" points="336.947 673.717 321.746 675.638 321.746 650.409 336.947 647.524"></polygon>
                <polygon id="Path" fill="#3F3D56" points="633.865 626.088 639.946 628.387 639.946 611.901 633.865 609.213"></polygon>
                <polygon id="Path" fill="#3F3D56" points="612.584 618.994 619.678 621.653 619.678 603.794 612.584 600.68"></polygon>
                <polygon id="Path" fill="#3F3D56" points="589.277 609.874 597.384 612.923 597.384 593.66 589.277 590.092"></polygon>
                <polygon id="Path" fill="#3F3D56" points="560.902 598.727 571.036 602.552 571.036 582.513 560.902 578.067"></polygon>
                <polygon id="Path" fill="#3F3D56" points="526.448 585.553 538.608 590.149 538.608 568.326 526.448 562.992"></polygon>
                <polygon id="Path" fill="#3F3D56" points="484.899 570.352 499.087 575.697 499.087 551.098 484.899 544.879"></polygon>
                <polygon id="Path" fill="#3F3D56" points="633.865 659.529 639.946 661.058 639.946 644.329 633.865 642.406"></polygon>
                <polygon id="Path" fill="#3F3D56" points="612.584 654.463 619.678 656.239 619.678 638.249 612.584 636.013"></polygon>
                <polygon id="Path" fill="#3F3D56" points="589.277 648.382 597.384 650.419 597.384 631.155 589.277 628.598"></polygon>
                <polygon id="Path" fill="#3F3D56" points="560.902 641.289 571.036 643.834 571.036 623.048 560.902 619.859"></polygon>
                <polygon id="Path" fill="#3F3D56" points="526.448 632.168 538.608 635.237 538.608 612.914 526.448 609.089"></polygon>
                <polygon id="Path" fill="#3F3D56" points="484.899 622.035 500.1 625.858 500.1 600.754 484.899 595.971"></polygon>
                <polygon id="Path" fill="#3F3D56" points="432.204 608.861 450.445 613.446 450.445 585.553 432.204 579.831"></polygon>
                <polygon id="Path" fill="#3F3D56" points="432.204 666.623 450.445 668.945 450.445 641.289 432.204 637.839"></polygon>
                <polygon id="Path" fill="#3F3D56" points="633.865 691.957 639.946 692.739 639.946 676.757 633.865 675.598"></polygon>
                <polygon id="Path" fill="#3F3D56" points="612.584 689.931 619.678 690.825 619.678 673.717 612.584 672.386"></polygon>
                <polygon id="Path" fill="#3F3D56" points="589.277 686.89 597.384 687.916 597.384 668.65 589.277 667.105"></polygon>
                <polygon id="Path" fill="#3F3D56" points="560.902 682.837 571.036 684.132 571.036 663.583 560.902 661.65"></polygon>
                <polygon id="Path" fill="#3F3D56" points="526.448 678.783 538.608 680.326 538.608 657.503 526.448 655.187"></polygon>
                <polygon id="Path" fill="#3F3D56" points="484.899 673.717 500.1 675.638 500.1 650.409 484.899 647.524"></polygon>
                <polygon id="Path" fill="#3F3D56" points="449.431 557.179 431.191 550.3 431.191 521.711 449.431 529.709"></polygon>
                <rect id="Rectangle" fill="#2F2E41" x="619.22047" y="703.34943" width="1.48683" height="23.78929"></rect>
                <rect id="Rectangle" fill="#2F2E41" x="637.17106" y="709.82471" width="1.05356" height="16.8569"></rect>
                <rect id="Rectangle" fill="#2F2E41" x="652.86574" y="711.88336" width="1" height="14.81543"></rect>
                <polygon id="Path" fill="#3F3D56" points="577.116 695.808 577.116 726.412 557.356 726.382 537.595 726.351 537.595 691.957 557.356 693.883"></polygon>
                <polygon id="Path" fill="#3F3D56" points="244.73 726.412 284.251 726.349 284.251 691.957 244.73 695.804"></polygon>
                <rect id="Rectangle" fill="#2F2E41" x="0" y="725.39869" width="885.5" height="2.02675"></rect>
                <polygon id="Path" fill="#000000" opacity="0.1" points="577.116 695.808 577.116 726.412 557.356 726.382 557.356 693.883"></polygon>
                <rect id="Rectangle" fill="#2F2E41" x="406.36292" y="698.54429" width="2.02675" height="28.37447"></rect>
                <path d="M419.07213,688.44263 C419.07213,698.38552 413.76092,706.68292 407.37629,706.96795 C401.16902,707.24506 396.26218,699.80473 396.26218,690.35639 C396.26218,680.90805 408.38966,654.96921 408.38966,654.96921 C408.38966,654.96921 419.07213,678.49975 419.07213,688.44263 Z" id="Path" fill="#0F72F9"></path>
                <rect id="Rectangle" fill="#2F2E41" x="168.74636" y="707.63783" width="1.2089" height="16.92457"></rect>
                <path d="M176.32705,701.61248 C176.32705,707.54313 173.15905,712.4923 169.35081,712.66231 C165.64835,712.8276 162.72155,708.38965 162.72155,702.75399 C162.72155,697.11833 169.95525,681.64653 169.95525,681.64653 C169.95525,681.64653 176.32705,695.68183 176.32705,701.61248 Z" id="Path" fill="#0F72F9"></path>
                <path d="M628.14145,704.28784 C628.14145,709.92822 624.58687,714.3339 619.96388,714.11702 C615.05488,713.88672 610.84688,708.59158 610.84688,702.30321 C610.84688,696.01484 619.96388,680.30355 619.96388,680.30355 C619.96388,680.30355 628.14145,698.64745 628.14145,704.28784 Z" id="Path" fill="#0F72F9"></path>
                <path d="M643.4924,710.48966 C643.4924,714.48639 640.97365,717.60822 637.69784,717.45454 C634.2194,717.29135 631.23759,713.53926 631.23759,709.08337 C631.23759,704.62748 637.69784,693.49459 637.69784,693.49459 C637.69784,693.49459 643.4924,706.49293 643.4924,710.48966 Z" id="Path" fill="#0F72F9"></path>
                <path d="M658.42152,712.46778 C658.42152,715.98048 656.20781,718.72423 653.32871,718.58917 C650.27153,718.44574 647.65084,715.14805 647.65084,711.2318 C647.65084,707.31555 653.32871,697.53091 653.32871,697.53091 C653.32871,697.53091 658.42152,708.95507 658.42152,712.46778 Z" id="Path" fill="#0F72F9"></path>
                <path d="M665.61801,163.25073 C665.61801,163.25073 655.75432,192.84181 661.23415,199.4176 C666.71398,205.99339 628.35515,179.69022 628.35515,179.69022 L649.1785,155.57897 L665.61801,163.25073 Z" id="Path" fill="#A0616A"></path>
                <circle id="Oval" fill="#2F2E41" cx="643.12413" cy="113.99581" r="49.20683"></circle>
                <polygon id="Path" fill="#A0616A" points="834.397 496.424 809.19 516.152 794.942 493.136 820.149 475.601"></polygon>
                <path d="M798.77786,644.92772 L805.35365,676.71072 L823.98507,701.91794 C823.98507,701.91794 874.3995,717.26146 840.42456,724.93322 C806.44962,732.60498 798.77786,719.45339 798.77786,719.45339 L774.66661,698.63004 L774.66661,727.12514 L759.32309,727.12514 L756.03519,686.57441 C756.03519,686.57441 753.84326,674.51878 763.70695,661.36719 L765.89888,641.63981 L798.77786,644.92772 Z" id="Path" fill="#2F2E41"></path>
                <path d="M671.64582,251.47598 L680.41355,301.89041 C680.41355,301.89041 773.57064,292.02672 780.14644,310.65813 C786.72224,329.28954 788.91417,334.76938 788.91417,334.76938 L770.28275,341.34518 L761.51502,324.90569 C756.117673,322.994502 750.171405,323.390932 745.07553,326.00169 C736.30781,330.38555 659.5902,341.34518 654.11037,327.09769 C648.63054,312.85017 633.28702,260.24378 633.28702,260.24378 L656.3023,241.61236 L671.64582,251.47598 Z" id="Path" fill="#A0616A"></path>
                <path d="M671.64582,251.47598 L680.41355,301.89041 C680.41355,301.89041 773.57064,292.02672 780.14644,310.65813 C786.72224,329.28954 788.91417,334.76938 788.91417,334.76938 L770.28275,341.34518 L761.51502,324.90569 C756.117673,322.994502 750.171405,323.390932 745.07553,326.00169 C736.30781,330.38555 659.5902,341.34518 654.11037,327.09769 C648.63054,312.85017 633.28702,260.24378 633.28702,260.24378 L656.3023,241.61236 L671.64582,251.47598 Z" id="Path" fill="#000000" opacity="0.1"></path>
                <path d="M723.15622,397.23944 L730.82798,423.54262 L750.55536,524.37147 C750.55536,524.37147 752.74729,598.89715 756.03519,607.66488 C759.32309,616.43261 759.32309,617.52857 756.03519,620.81647 C752.74729,624.10437 746.1715,635.06402 756.03519,641.63982 C765.89888,648.21562 800.96979,655.88737 802.06576,648.21561 C803.16173,640.54385 803.16176,628.48823 802.06576,623.0084 C800.96976,617.52857 805.35365,532.04323 805.35365,532.04323 L792.20206,401.6233 L747.26746,380.79995 L723.15622,397.23944 Z" id="Path" fill="#2F2E41"></path>
                <path d="M723.15622,397.23944 L730.82798,423.54262 L750.55536,524.37147 C750.55536,524.37147 752.74729,598.89715 756.03519,607.66488 C759.32309,616.43261 759.32309,617.52857 756.03519,620.81647 C752.74729,624.10437 746.1715,635.06402 756.03519,641.63982 C765.89888,648.21562 800.96979,655.88737 802.06576,648.21561 C803.16173,640.54385 803.16176,628.48823 802.06576,623.0084 C800.96976,617.52857 805.35365,532.04323 805.35365,532.04323 L792.20206,401.6233 L747.26746,380.79995 L723.15622,397.23944 Z" id="Path" fill="#000000" opacity="0.1"></path>
                <path d="M770.28275,294.21865 L794.394,340.24921 C794.394,340.24921 932.48569,401.6233 920.43007,426.83051 C908.37445,452.03772 841.52053,499.16426 841.52053,499.16426 C841.52053,499.16426 838.23263,517.79568 828.36894,512.31585 C818.50525,506.83602 794.394,478.34091 796.58594,475.05301 C798.77788,471.76511 806.44963,464.09335 809.73753,465.18932 C813.02543,466.28529 851.38423,436.69421 851.38423,436.69421 L785.62623,420.25472 C785.62623,420.25472 706.71669,418.06279 702.33282,380.79995 C697.94895,343.53711 702.33282,336.96132 702.33282,336.96132 L696.853,324.90569 L741.78763,297.50654 L770.28275,294.21865 Z" id="Path" fill="#2F2E41"></path>
                <path d="M804.25769,476.14898 L781.24241,496.97233 C781.24241,496.97233 761.51502,488.2046 749.45941,491.4925 C737.4038,494.7804 716.58041,496.97233 716.58041,496.97233 L719.86831,515.60375 L747.83059,510.44494 L725.34814,541.90694 C725.34814,541.90694 725.34814,591.2254 739.59569,591.2254 C753.84324,591.2254 749.45939,561.63432 749.45939,561.63432 L793.29802,527.65938 C793.29802,527.65938 815.21734,518.89165 817.40927,518.89165 C819.6012,518.89165 804.25769,476.14898 804.25769,476.14898 Z" id="Path" fill="#2F2E41"></path>
                <circle id="Oval" fill="#A0616A" cx="661.23415" cy="134.75562" r="37.26284"></circle>
                <path d="M624.51929,163.79871 C624.51929,163.79871 642.05474,159.41485 647.53457,163.79871 C653.0144,168.18257 654.11037,178.04627 661.78213,179.14223 C669.45389,180.23819 676.02968,180.23823 677.12565,181.33417 C678.22162,182.43011 703.42883,213.11717 703.42883,213.11717 C703.42883,213.11717 718.77235,221.88489 722.06025,233.94052 C725.34815,245.99615 758.22712,286.54688 762.61099,290.93074 C766.99486,295.3146 734.11587,317.23392 723.15622,324.90568 C712.19657,332.57744 680.41355,335.86534 670.54986,318.32989 C660.68617,300.79444 606.98384,186.814 624.51929,163.79871 Z" id="Path" fill="#575A89"></path>
                <path d="M666.16599,235.03649 L674.93372,285.45092 C674.93372,285.45092 768.09082,275.58723 774.66661,294.21865 C781.2424,312.85007 783.43434,318.3299 783.43434,318.3299 L764.80293,324.90569 L756.0352,308.4662 C750.637852,306.555018 744.691587,306.951448 739.59571,309.5622 C730.82799,313.94606 654.11038,324.90569 648.63055,310.6582 C643.15072,296.41068 627.8072,243.80429 627.8072,243.80429 L650.82248,225.17287 L666.16599,235.03649 Z" id="Path" fill="#A0616A"></path>
                <path d="M645.22228,168.40978 C645.22228,168.40978 671.64582,224.07683 669.45389,239.42036 C667.26196,254.76389 659.5902,243.80422 659.5902,243.80422 C659.5902,243.80422 649.7265,228.4607 645.34264,237.22842 C640.95878,245.99614 635.47895,258.05177 631.09509,256.95581 C626.71123,255.85985 602.59997,174.75837 615.75156,167.08661 C628.90315,159.41485 645.22228,168.40978 645.22228,168.40978 Z" id="Path" fill="#575A89"></path>
                <circle id="Oval" fill="#2F2E41" cx="589.81674" cy="49.20683" r="49.20683"></circle>
                <path d="M547.37322,89.95324 C560.296387,99.2936015 576.944193,101.793338 592.04061,96.6602313 C607.137027,91.5271248 618.810545,79.3975291 623.36159,64.11556 C621.04759,82.5175834 608.583592,98.0554661 591.121777,104.306391 C573.659962,110.557317 554.166788,106.459361 540.700053,93.7064751 C527.233317,80.9535895 522.080784,61.7122682 527.37233,43.9362 C525.127105,61.7779611 532.796378,79.4230381 547.37322,89.95324 L547.37322,89.95324 Z" id="Path" fill="#2F2E41"></path>
                <circle id="Oval" fill="#2F2E41" cx="633.00232" cy="122.19694" r="36.08501"></circle>
                <ellipse id="Oval" fill="#2F2E41" cx="660.34652" cy="108.66504" rx="31.98443" ry="25.01347"></ellipse>
                <ellipse id="Oval" fill="#A0616A" cx="661.78213" cy="138.5915" rx="7.12378" ry="12.60361"></ellipse>
                <path d="M759.56903,324.42675 C759.56903,324.42675 778.97063,313.29553 782.57244,316.0867 C786.17425,318.87787 787.7745,327.61199 787.7745,327.61199 L765.3509,336.41333 L758.77511,324.35771 L759.56903,324.42675 Z" id="Path" fill="#2F2E41"></path>
            </g>
        </g>
    </g>
</svg>