<?xml version="1.0" encoding="UTF-8"?>
<svg width="1920px" height="518px" viewBox="0 0 1920 518" version="1.1" xmlns="http://www.w3.org/2000/svg" xmlns:xlink="http://www.w3.org/1999/xlink">
    <title>Group 6</title>
    <defs>
        <rect id="path-1" x="0" y="0" width="1920" height="518"></rect>
    </defs>
    <g id="Page-1" stroke="none" stroke-width="1" fill="none" fill-rule="evenodd">
        <g id="Group-6">
            <mask id="mask-2" fill="white">
                <use xlink:href="#path-1"></use>
            </mask>
            <use id="Rectangle" fill="#1D1E1F" xlink:href="#path-1"></use>
            <g id="SWMS_Bildmarke_W_RGB" mask="url(#mask-2)">
                <g transform="translate(-151.000000, -74.000000)" id="Group">
                    <g transform="translate(209.000000, 0.000000)">
                        <path d="M540.662371,255.959428 L285.700835,77.5068312 C253.822211,55.1937005 215.167598,46.6071163 176.797817,53.372985 C138.458018,60.1313611 105.035308,81.4105052 82.7135249,113.284265 L41.8926951,171.562147 L0,142.250875 L40.8208298,83.9729937 C70.9904662,40.9052048 116.121244,12.1633749 167.915576,3.03731937 C219.717404,-6.08124345 271.96147,5.48741801 315.038464,35.64536 L570,214.090465 L540.662371,255.959428 Z" id="Path" fill="#FFFFFF" fill-rule="nonzero"></path>
                        <path d="M483.890986,337 L229.116839,158.674778 C207.934381,143.831826 178.536787,148.994266 163.650602,170.220961 L122.979683,228.304034 L81.086988,198.992762 L121.772898,140.894704 C152.834506,96.6056124 214.110724,85.7937092 258.454468,116.805814 L513.228615,295.131036 L483.890986,337 Z" id="Path" fill="#FFFFFF" fill-rule="nonzero"></path>
                    </g>
                    <g transform="translate(0.000000, 112.000000)">
                        <path d="M29.337629,81.0405715 L284.299165,259.493169 C316.177789,281.806299 354.832402,290.392884 393.202183,283.627015 C431.541982,276.868639 464.964692,255.589495 487.286475,223.715735 L528.107305,165.437853 L570,194.749125 L529.17917,253.027006 C499.009534,296.094795 453.878756,324.836625 402.084424,333.962681 C350.282596,343.081243 298.03853,331.512582 254.961536,301.35464 L-2.66295851e-14,122.909535 L29.337629,81.0405715 Z" id="Path" fill="#FFFFFF" fill-rule="nonzero"></path>
                        <path d="M86.11651,0 L340.890657,178.325222 C362.073115,193.168174 391.470708,188.005734 406.356894,166.779039 L447.027812,108.695966 L488.920508,138.007238 L448.234598,196.105296 C417.17299,240.394388 355.896772,251.206291 311.553028,220.194186 L56.7788809,41.8689639 L86.11651,0 Z" id="Path" fill="#FFFFFF" fill-rule="nonzero"></path>
                    </g>
                </g>
            </g>
            <g id="SWMS_Bildmarke_W_RGB" mask="url(#mask-2)">
                <g transform="translate(1050.000000, -495.000000)" id="Group">
                    <g transform="translate(392.000000, 0.000000)">
                        <path d="M908.356762,632 L430.096522,297.574064 C390.332961,269.738023 335.148004,279.419513 307.203761,319.227441 L230.856598,428.154746 L152.215925,373.185239 L228.591229,264.229831 C286.899862,181.171356 401.927148,160.895027 485.168913,219.054227 L963.429154,553.480163 L908.356762,632 Z" id="Path" fill="#FFFFFF" fill-rule="nonzero"></path>
                    </g>
                    <g transform="translate(0.000000, 210.000000)">
                        <path d="M55.0723913,151.981131 L533.684397,486.645943 C593.526728,528.491339 666.088895,544.594369 738.116378,531.905856 C810.08758,519.231394 872.828457,479.325106 914.730752,419.549983 L991.359327,310.257339 L1070,365.226846 L993.371425,474.51949 C936.737195,555.287569 852.018016,609.189161 754.790059,626.3039 C657.548031,643.404587 559.475837,621.709056 478.612006,565.151728 L0,230.500969 L55.0723913,151.981131 Z" id="Path" fill="#FFFFFF" fill-rule="nonzero"></path>
                        <path d="M161.657308,0 L639.917549,334.425936 C679.68111,362.261977 734.866066,352.580487 762.81031,312.772559 L839.157473,203.845254 L917.798146,258.814761 L841.422842,367.770169 C783.114209,450.828644 668.086922,471.104973 584.845157,412.945773 L106.584917,78.5198374 L161.657308,0 Z" id="Path" fill="#FFFFFF" fill-rule="nonzero"></path>
                    </g>
                </g>
            </g>
        </g>
    </g>
</svg>