<?xml version="1.0" encoding="UTF-8"?>
<svg width="936px" height="606px" viewBox="0 0 936 606" version="1.1" xmlns="http://www.w3.org/2000/svg" xmlns:xlink="http://www.w3.org/1999/xlink">
    <title>Group</title>
    <defs>
        <polygon id="path-1" points="936 606 0 606 0 0 936 0"></polygon>
    </defs>
    <g id="Page-1" stroke="none" stroke-width="1" fill="none" fill-rule="evenodd">
        <g id="Group">
            <mask id="mask-2" fill="white">
                <use xlink:href="#path-1"></use>
            </mask>
            <use id="Mask" fill="#3F3D56" fill-rule="nonzero" xlink:href="#path-1"></use>
            <g mask="url(#mask-2)" fill-rule="nonzero">
                <g transform="translate(-3.000000, 0.000000)">
                    <rect id="Rectangle" fill="#3F3D56" x="0" y="0" width="472" height="608"></rect>
                    <rect id="Rectangle" fill="#007BFF" x="469" y="0" width="472" height="608"></rect>
                    <path d="M602.88281,565.69141 C601.730511,563.565964 600.704005,561.374694 599.80859,559.12891 C595.87109,549.28516 603.50098,541.45508 603.82813,541.12598 L604.12695,540.82617 L604.12012,540.4043 C604.0332,534.9463 601.92578,406.43945 595.60938,381.17773 C589.90796,358.36682 572.26361,352.14038 568.14938,350.98322 L568.15921,350.87012 L547.8699,348.2699 C555.46335,298.26398 563.07284,182.6349 477.11233,158.82422 C474.13156,158.073998 471.093604,157.57276 468.02982,157.32568 L467.84427,159.31689 C470.788178,159.558473 473.707708,160.037904 476.57427,160.75049 C561.02556,184.14355 553.40142,298.56787 545.88549,348.01563 L515.15911,344.07782 C507.15711,339.58862 498.1195,331.53182 497.05864,309.91282 C508.089262,300.650328 515.161654,287.521362 516.82764,273.21427 C516.970406,273.231196 517.114044,273.239718 517.25781,273.23979 C521.70605,273.23979 525.32422,268.03617 525.32422,261.63969 C525.32422,255.24321 521.70605,250.03959 517.25781,250.03959 C516.362897,250.001727 515.48839,250.313711 514.81952,250.90946 C508.525163,230.007576 490.733169,214.615646 469.14307,211.39457 L468.85791,213.37406 C495.463706,217.243073 515.197268,240.05385 515.197268,266.93949 C515.197268,293.82513 495.463706,316.635907 468.85791,320.50492 L469.14307,322.48539 C478.615425,321.112306 487.571758,317.3131 495.14233,311.45671 C496.51324,331.65177 505.13068,340.25504 512.50641,344.83543 C504.07666,356.36381 490.42047,363.34397 471.88086,365.56643 C470.89063,365.68557 469.90039,365.78518 468.91064,365.87404 L469.08936,367.86623 C470.09961,367.77541 471.10936,367.67385 472.11914,367.55275 C491.2627,365.25783 505.4082,357.99709 514.17383,345.96775 L514.52032,346.01219 C514.58521,346.04795 514.65132,346.08586 514.71582,346.12107 L514.75861,346.0427 L566.00098,352.61033 L551.24414,523.374 L551.23926,523.42967 L551.24026,523.48533 C551.24126,523.49217 551.28026,525.06248 551.28026,527.82518 L551.28026,528.05662 L551.28118,528.05839 C551.358163,543.127526 550.622093,558.189842 549.07618,573.17967 C547.42189,588.04197 544.91018,599.41404 541.60939,606.99998 L515.71973,606.99998 C515.844825,604.648528 516.321794,602.329123 517.13473,600.11912 L519.45016,593.4824 L515.376,599.21 C513.092927,602.171172 510.401789,604.793907 507.38283,607 L469,607 L469,609 L508.03516,609 L508.29785,608.80859 C510.365784,607.299526 512.299414,605.614545 514.07715,603.77246 C513.815343,605.172624 513.69235,606.595208 513.70996,608.01953 L513.72852,609 L584.791,609 L585.02439,608.86328 C589.28025,606.37305 589.28025,601.77246 589.28025,593.41992 C589.28025,588.18066 592.79881,584.66211 596.52439,580.93652 C598.485597,579.099649 600.263199,577.076093 601.83201,574.89452 C605.01367,570.12207 604.88086,569.458 602.88281,565.69141 Z M515.47949,253.06641 C516.23633,252.25684 516.44043,252.03955 517.25781,252.03955 C520.5459,252.03955 523.32422,256.43604 523.32422,261.63965 C523.32422,266.80859 520.58398,271.18065 517.32422,271.23926 C517.254883,271.063112 517.16352,270.896453 517.05231,270.74326 C517.13873,269.48343 517.19731,268.21719 517.19731,266.93942 C517.193656,262.275108 516.601349,257.629905 515.43443,253.11392 L515.47949,253.06641 Z M557.54785,540.55371 L551.57585,568.42914 C552.92173,554.17214 553.23075,540.24457 553.27757,532.03894 L557.54785,540.55371 Z M600.168,573.78516 C598.669954,575.85501 596.976281,577.775963 595.11038,579.52148 C591.26077,583.37207 587.2803,587.35254 587.2803,593.41992 C587.2803,601.61426 587.16116,605.12792 584.2383,607 L543.78033,607 C546.97589,599.28772 549.41467,588.081 551.03546,573.6496 L553.17676,570.5 L559.65137,540.28613 L553.28,527.58362 C553.27823,525.2464 553.24789,523.7879 553.24124,523.49121 L567.97397,353.00916 C572.29953,354.28796 588.35287,360.39539 593.66997,381.66211 C599.75786,406.0166 601.97759,531.94043 602.11333,540.03711 C600.59575,541.74219 593.99028,549.96973 597.95122,559.87111 C598.873331,562.183597 599.930142,564.440071 601.11622,566.62893 C602.81055,569.82227 602.81055,569.82227 600.168,573.78516 Z" id="Shape" fill="#3F3D56"></path>
                    <path d="M469.37,158.74 L469.37,382.09 L425.72,387.18 L386.8201,391.73 L373.21,393.31 L373.21,393.32 L372.57011,393.39 C372.57011,393.39 370.32011,386.5 368.55011,372.76 C365.49005,349.01 363.86005,304.8 377.81011,240.39 C396.41992,154.42 452.51,156.16 469.37,158.74 Z" id="Path" fill="#2F2E41"></path>
                    <polygon id="Path" fill="#2F2E41" points="466.37 566.85 469.37 567 469.37 607.92 330.94 607.92 333.89 596.78 337.61 582.74 354.89 565.46 358.81 561.54"></polygon>
                    <path d="M469.37,212.82 L469.37,320.9 C448.776764,325.061416 427.608542,317.155546 414.784889,300.51365 C401.961237,283.871755 399.711987,261.387598 408.984896,242.535227 C418.257805,223.682855 437.440458,211.739952 458.44995,211.739952 C461.926678,211.735362 465.395869,212.063525 468.81006,212.72 C469,212.75 469.17993,212.78 469.37,212.82 Z" id="Path" fill="#FFB9B9"></path>
                    <path d="M469.37,303.57 L469.37,420.68 L425.72,387.18 L400.15,367.56 L420.58006,358.27 C421.49998,357.86 422.45994,357.42 423.46995,356.96 C438.69995,350.04 441.27,331.35 441.21995,319.23 C441.221713,315.539137 440.957697,311.852938 440.42995,308.2 L469.37,303.57 Z" id="Path" fill="#FFB9B9"></path>
                    <path d="M466.37,366.79 C467.37,366.7 468.37,366.6 469.37,366.48 L469.37,607.92 L453.35,607.92 C443.15993,604.83 435.13,601.82 435.13,601.82 C435.13,601.82 386.37,595.46 371.53,597.58 C370.69992,597.7 369.71994,597.84 368.61,598 C359.65992,599.28 342.68995,601.37 333.89,596.78 C325.12,592.21 324.45,581.01 347.85,555.78 C349.90004,553.57 352.14007,551.25 354.57009,548.82 C354.57009,548.82 386.37,527.62 382.13,521.26 C377.89,514.9 371.53,487.34 371.53,487.34 L371.63,481.89 L373.21,393.32 L373.21,393.31 L373.65006,368.62 L420.58012,358.27 L428.77006,364.38 C441.123728,366.976588 453.785922,367.788182 466.37,366.79 Z" id="Path" fill="#575A89"></path>
                    <path d="M380.5321,607.92126 L355.2221,607.92126 L365.1721,603.94126 C365.1721,603.94126 369.0321,604.65126 374.5521,606.16126 C376.39215,606.66125 378.41211,607.24127 380.5321,607.92126 Z" id="Path" fill="#FFB9B9"></path>
                    <path d="M382.13214,472.50122 C378.86214,473.73122 375.28214,477.15122 371.63214,481.89122 C356.31214,501.74122 339.73214,544.58122 339.73214,544.58122 C339.73214,544.58122 345.32214,550.17122 347.85214,555.78122 C349.14214,558.64122 349.64214,561.51122 348.21219,563.66122 C343.97219,570.02122 348.21219,563.66122 352.45219,563.66122 C354.10219,563.66122 354.79219,564.30122 354.89219,565.46122 C355.04219,567.28122 353.74219,570.38122 352.45219,574.26122 C350.33219,580.62122 352.45219,582.74122 363.05219,584.86122 C373.65219,586.98122 367.29219,586.98122 367.29219,593.34122 C367.346748,594.978775 367.799838,596.578319 368.61219,598.00122 C370.47153,601.113694 372.90055,603.848054 375.77219,606.06127 C375.35214,606.09127 374.95219,606.12127 374.55219,606.16127 C371.717128,606.38191 368.923278,606.973628 366.24219,607.92127 L311.97219,607.92127 C312.980454,606.746251 313.766582,605.397635 314.29219,603.94127 C316.41219,597.58127 299.45219,586.98127 297.33219,584.86127 C295.21219,582.74127 295.21219,574.26127 297.33219,565.78127 C299.45219,557.30127 295.21219,557.30127 290.97219,553.06127 C286.73219,548.82127 290.97219,542.46127 295.21219,536.10127 C299.45219,529.74127 299.45219,531.86127 293.09213,519.14127 C286.73207,506.42127 299.45218,504.30127 299.45218,504.30127 C299.45218,504.30127 327.01218,447.06127 341.85218,413.14127 C351.66218,390.71127 362.41218,378.47127 368.55218,372.76127 C370.132429,371.239964 371.838509,369.855028 373.65218,368.62127 L384.25218,372.86127 C384.25218,372.86127 385.48218,380.57127 386.82218,391.72127 C390.16211,419.32122 394.21216,467.97125 382.13214,472.50122 Z" id="Path" fill="#575A89"></path>
                    <path d="M469.37,194.71 L469.37,211.8 C469.18994,212.11 469,212.41 468.81006,212.72 C457.75,230.87 438.02006,255.82 407.69995,269.43 L404.97995,253.46 L399.31003,220.18 L469.37,194.71 Z" id="Path" fill="#2F2E41"></path>
                    <path d="M236.192019,522.94127 C236.22261,585.97218 198.762,607.99548 152.5431,608.017947 C151.469507,608.017947 150.401093,608.006983 149.33786,607.98353 C147.1958,607.93835 145.076037,607.841783 142.97857,607.69383 C101.26302,604.76055 68.84001,581.64117 68.8115616,523.02256 C68.78211,462.35956 146.27644,385.76641 152.08827,380.10307 C152.09335,380.10307 152.09335,380.10307 152.09849,380.09792 C152.31928,379.88209 152.43228,379.77418 152.43228,379.77418 C152.43228,379.77418 236.16142,459.91548 236.192019,522.94127 Z" id="Path" fill="#007BFF"></path>
                    <path d="M149.49243,598.378 L180.0805,555.596 L149.41765,603.07288 L149.33789,607.98349 C147.19583,607.93831 145.076067,607.841743 142.9786,607.69379 L146.24568,544.63557 L146.2198,544.14763 L146.27619,544.05512 L146.58668,538.09655 L115.80061,490.53139 L146.67694,533.63282 L146.75461,534.89639 L149.2227,487.25339 L122.86362,438.09886 L149.54224,478.88062 L152.08824,380.10298 L152.0983,379.77426 L152.09846,380.09783 L151.70489,457.99423 L177.9018,427.10041 L151.5951,464.70265 L150.92239,507.36225 L175.38856,466.412 L150.8279,513.63415 L150.45418,537.35505 L185.9613,480.35261 L150.3195,545.63013 L149.49243,598.378 Z" id="Path" fill="#3F3D56"></path>
                    <path d="M806.10059,426.12305 C793.2909,409.103964 779.261783,393.037919 764.124,378.05176 L763.43553,377.39355 L762.38963,378.3877 C753.83201,386.72656 678.78221,461.60449 678.811491,522.02344 C678.84342,587.83527 718.8935,604.95744 752.929,607.6153 L752.92869,607.62109 L753.90818,607.69043 C756.00975,607.83984 758.166,607.93848 760.31443,607.98343 L760.32084,607.98349 L761.32127,608.00394 L761.32139,607.9946 C762.01316,608.00491 762.70408,608.0176 763.39939,608.0176 L763.54295,608.0176 C788.87986,608.0049 809.00975,601.5586 823.37303,588.85647 C839.85643,574.28127 848.20703,551.7676 848.192379,521.94147 C848.17578,489.1084 825.294,451.71289 806.10059,426.12305 Z M779.36523,509.49219 L760.32323,544.36719 L759.44237,600.56641 L767.28905,589.59082 L759.42284,601.77051 L759.3546,605.95013 C759.12249,605.94348 758.89104,605.93506 758.65911,605.92713 C757.651417,605.89253 756.648793,605.846593 755.65124,605.78932 C755.44359,605.77732 755.23552,605.76612 755.02868,605.75318 L758.24511,543.68751 L758.24706,543.63478 L758.23534,543.40333 L758.60253,536.82521 L750.666,524.56348 L756.69627,532.98148 L756.75682,533.95804 L758.75389,533.94827 L761.22166,486.30569 L761.23533,486.02737 L745.5918,456.85352 L761.32324,480.90234 L760.86424,510.08398 L769.84764,495.04785 L760.83201,512.38185 L760.39744,539.94337 L779.36523,509.49219 Z M680.811512,522.02246 C680.7998,496.89258 694.00684,466.11035 720.06641,430.5293 C732.855003,413.21636 746.878384,396.850527 762.02692,381.55975 L759.625,474.65234 L734.7002,436.55078 L732.98242,437.57129 L759.21,486.48047 L756.96,529.915 L727.61332,488.94918 L725.96098,490.07418 L756.57133,537.36812 L756.291,542.75 L756.20408,542.8916 L756.24508,543.63672 L753.03249,605.61829 C719.85284,603.009 680.84247,586.26923 680.811512,522.02246 Z M775.74316,443.165 L761.92773,462.91109 L762.01953,459.34859 L775.74316,443.165 Z M763.542,606.01758 C762.80775,606.01758 762.08168,606.00421 761.35407,605.99408 L761.41307,602.37598 L791.9199,555.13867 L790.26658,554.01367 L761.542,594.18945 L762.31544,544.89258 L797.83887,479.832 L796.1123,478.82419 L762.51074,532.76755 L762.82422,512.88571 L787.27539,465.87302 L785.53027,464.89938 L762.98145,502.6406 L763.58984,464.02536 L789.7207,426.6738 L788.1387,425.45407 L763.71875,454.252 L764.0899,380.82048 C774.82123,391.46636 846.16376,464.42948 846.192398,521.94148 C846.22559,591.39844 801.26563,605.999 763.542,606.01758 Z" id="Shape" fill="#3F3D56"></path>
                </g>
            </g>
        </g>
    </g>
</svg>