<?xml version="1.0" encoding="UTF-8"?><svg id="Ebene_2" xmlns="http://www.w3.org/2000/svg" viewBox="0 0 63 69.667"><defs><style>.cls-1{fill:#00b4f0;}.cls-2{fill:#00693c;}</style></defs><g id="EXPORT_Icon_Kontur"><g><path class="cls-1" d="M15.5,55c3.033,0,5.5-2.468,5.5-5.5s-2.467-5.5-5.5-5.5-5.5,2.468-5.5,5.5,2.467,5.5,5.5,5.5Zm0-8c1.378,0,2.5,1.121,2.5,2.5s-1.122,2.5-2.5,2.5-2.5-1.121-2.5-2.5,1.122-2.5,2.5-2.5Zm32,8c3.033,0,5.5-2.468,5.5-5.5s-2.467-5.5-5.5-5.5-5.5,2.468-5.5,5.5,2.467,5.5,5.5,5.5Zm0-8c1.378,0,2.5,1.121,2.5,2.5s-1.122,2.5-2.5,2.5-2.5-1.121-2.5-2.5,1.122-2.5,2.5-2.5ZM59,12h-2V6.485c0-3.576-2.91-6.485-6.486-6.485H12.486c-3.576,0-6.486,2.909-6.486,6.485v5.515h-2c-2.206,0-4,1.794-4,4v11c0,2.206,1.794,4,4,4h2v26.007c0,1.473,.81,2.748,2,3.44v4.47c0,2.619,2.557,4.75,5.7,4.75h5.6c3.143,0,5.7-2.131,5.7-4.75v-3.917h13v3.917c0,2.619,2.557,4.75,5.7,4.75h5.6c3.143,0,5.7-2.131,5.7-4.75v-4.47c1.19-.692,2-1.967,2-3.44V31h2c2.206,0,4-1.794,4-4v-11c0-2.206-1.794-4-4-4ZM9,6.485c0-1.922,1.564-3.485,3.486-3.485H50.514c1.922,0,3.486,1.563,3.486,3.485v11.515H9V6.485ZM4,28c-.551,0-1-.448-1-1v-11c0-.552,.449-1,1-1h2v13h-2Zm18,36.917c0,.933-1.262,1.75-2.7,1.75h-5.6c-1.438,0-2.7-.817-2.7-1.75v-3.917h11v3.917Zm27.3,1.75h-5.6c-1.438,0-2.7-.817-2.7-1.75v-3.917h11v3.917c0,.933-1.262,1.75-2.7,1.75Zm4.7-9.66c0,.548-.445,.993-.993,.993H9.993c-.547,0-.993-.445-.993-.993v-16.007H54v16.007Zm0-19.007H9V21H54v17Zm6-11c0,.552-.449,1-1,1h-2V15h2c.551,0,1,.448,1,1v11Z"/><path class="cls-2" d="M51,8.366c0-1.305-1.062-2.366-2.366-2.366H14.366c-1.305,0-2.366,1.062-2.366,2.366v6.634H51v-6.634Zm-3,3.634H15v-3H48v3Z"/></g></g></svg>