<?xml version="1.0" encoding="utf-8"?>
<svg version="1.1" id="EXPORT_x5F_Icon_Kontur" xmlns="http://www.w3.org/2000/svg" xmlns:xlink="http://www.w3.org/1999/xlink"
	 x="0px" y="0px" viewBox="0 0 96 96" style="enable-background:new 0 0 96 96;" xml:space="preserve">
<style type="text/css">
	.st0{fill:#00B4F0;}
	.st1{fill:#FFFFFF;}
	.st2{fill:#00693C;}
	.st3{fill:none;}
	.st4{fill:#E60050;}
	.st5{fill:#00411E;}
</style>
<g>
	<path class="st0" d="M31.847,69.5c3.033,0,5.5-2.468,5.5-5.5s-2.467-5.5-5.5-5.5s-5.5,2.468-5.5,5.5S28.815,69.5,31.847,69.5z
		 M31.847,61.5c1.378,0,2.5,1.121,2.5,2.5s-1.122,2.5-2.5,2.5s-2.5-1.121-2.5-2.5S30.469,61.5,31.847,61.5z M63.847,69.5
		c3.033,0,5.5-2.468,5.5-5.5s-2.467-5.5-5.5-5.5s-5.5,2.468-5.5,5.5S60.815,69.5,63.847,69.5z M63.847,61.5
		c1.378,0,2.5,1.121,2.5,2.5s-1.122,2.5-2.5,2.5s-2.5-1.121-2.5-2.5S62.469,61.5,63.847,61.5z M75.347,26.5h-2v-5.515
		c0-3.576-2.91-6.485-6.486-6.485H28.833c-3.576,0-6.486,2.909-6.486,6.485V26.5h-2c-2.206,0-4,1.794-4,4v11c0,2.206,1.794,4,4,4h2
		v7v3v16.007c0,1.473,0.81,2.748,2,3.44v4.47c0,2.619,2.557,4.75,5.7,4.75h5.6c3.143,0,5.7-2.131,5.7-4.75V75.5h13v3.917
		c0,2.619,2.557,4.75,5.7,4.75h5.6c3.143,0,5.7-2.131,5.7-4.75v-4.47c1.19-0.692,2-1.967,2-3.44V55.5v-3v-7h2c2.206,0,4-1.794,4-4
		v-11C79.347,28.294,77.553,26.5,75.347,26.5z M25.347,20.985c0-1.922,1.564-3.485,3.486-3.485h38.028
		c1.922,0,3.486,1.563,3.486,3.485V26.5v3v3h-45v-3v-3V20.985z M20.347,42.5c-0.551,0-1-0.448-1-1v-11c0-0.552,0.449-1,1-1h2v3v3v7
		H20.347z M38.347,79.417c0,0.933-1.262,1.75-2.7,1.75h-5.6c-1.438,0-2.7-0.817-2.7-1.75V75.5h11V79.417z M65.647,81.167h-5.6
		c-1.438,0-2.7-0.817-2.7-1.75V75.5h11v3.917C68.347,80.35,67.086,81.167,65.647,81.167z M70.347,71.507
		c0,0.548-0.445,0.993-0.993,0.993h-1.007h-11h-3h-13h-3h-11H26.34c-0.547,0-0.993-0.445-0.993-0.993V55.5h45V71.507z M70.347,52.5
		h-45v-7v-3v-7h45v7v3V52.5z M76.347,41.5c0,0.552-0.449,1-1,1h-2v-7v-3v-3h2c0.551,0,1,0.448,1,1V41.5z"/>
	<path class="st2" d="M67.347,22.866c0-1.305-1.062-2.366-2.366-2.366H30.713c-1.305,0-2.366,1.062-2.366,2.366V29.5h39V22.866z
		 M64.347,26.5h-33v-3h33V26.5z"/>
</g>
</svg>
