<?xml version="1.0" encoding="utf-8"?>
<!-- Generator: Adobe Illustrator 25.2.3, SVG Export Plug-In . SVG Version: 6.00 Build 0)  -->
<svg version="1.1" id="EXPORT_x5F_Icon_Kontur" xmlns="http://www.w3.org/2000/svg" xmlns:xlink="http://www.w3.org/1999/xlink"
	 x="0px" y="0px" viewBox="0 0 96 96" style="enable-background:new 0 0 96 96;" xml:space="preserve">
<style type="text/css">
	.st0{fill:#00B4F0;}
	.st1{fill:#FFFFFF;}
	.st2{fill:#00693C;}
	.st3{fill:none;}
	.st4{fill:#E60050;}
	.st5{fill:#00411E;}
</style>
<g>
	<path class="st2" d="M75.5,26.473h-2v-5.515c0-3.576-2.91-6.485-6.486-6.485H28.986c-3.576,0-6.486,2.909-6.486,6.485v5.515h-2
		c-2.206,0-4,1.794-4,4v11c0,2.206,1.794,4,4,4h2v7v3V71.48c0,1.473,0.81,2.748,2,3.44v4.47c0,2.619,2.557,4.75,5.7,4.75h5.6
		c3.143,0,5.7-2.131,5.7-4.75v-3.917h13v3.917c0,2.619,2.557,4.75,5.7,4.75h5.6c3.143,0,5.7-2.131,5.7-4.75v-4.47
		c1.19-0.692,2-1.967,2-3.44V55.473v-3v-7h2c2.206,0,4-1.794,4-4v-11C79.5,28.267,77.706,26.473,75.5,26.473z M25.5,20.959
		c0-1.922,1.564-3.485,3.486-3.485h38.028c1.922,0,3.486,1.563,3.486,3.485v5.515v3v3h-45v-3v-3V20.959z M20.5,42.473
		c-0.551,0-1-0.448-1-1v-11c0-0.552,0.449-1,1-1h2v3v3v7H20.5z M38.5,79.39c0,0.933-1.262,1.75-2.7,1.75h-5.6
		c-1.438,0-2.7-0.817-2.7-1.75v-3.917h11V79.39z M65.8,81.14h-5.6c-1.438,0-2.7-0.817-2.7-1.75v-3.917h11v3.917
		C68.5,80.323,67.238,81.14,65.8,81.14z M70.5,71.48c0,0.548-0.445,0.993-0.993,0.993H68.5h-11h-3h-13h-3h-11h-1.007
		c-0.547,0-0.993-0.445-0.993-0.993V55.473h45V71.48z M70.5,52.473h-45v-7v-3v-7h45v7v3V52.473z M76.5,41.473c0,0.552-0.449,1-1,1
		h-2v-7v-3v-3h2c0.551,0,1,0.448,1,1V41.473z"/>
	<path class="st2" d="M32,69.473c3.033,0,5.5-2.468,5.5-5.5c0-3.032-2.467-5.5-5.5-5.5s-5.5,2.468-5.5,5.5
		C26.5,67.006,28.967,69.473,32,69.473z M32,61.473c1.378,0,2.5,1.121,2.5,2.5c0,1.379-1.122,2.5-2.5,2.5s-2.5-1.121-2.5-2.5
		C29.5,62.594,30.622,61.473,32,61.473z"/>
	<path class="st2" d="M64,69.473c3.033,0,5.5-2.468,5.5-5.5c0-3.032-2.467-5.5-5.5-5.5s-5.5,2.468-5.5,5.5
		C58.5,67.006,60.967,69.473,64,69.473z M64,61.473c1.378,0,2.5,1.121,2.5,2.5c0,1.379-1.122,2.5-2.5,2.5s-2.5-1.121-2.5-2.5
		C61.5,62.594,62.622,61.473,64,61.473z"/>
	<path class="st2" d="M67.5,22.84c0-1.305-1.062-2.366-2.366-2.366H30.866c-1.305,0-2.366,1.062-2.366,2.366v6.634h39V22.84z
		 M64.5,26.473h-33v-3h33V26.473z"/>
</g>
</svg>
