<?xml version="1.0" encoding="UTF-8"?>
<svg width="104px" height="60px" viewBox="0 0 104 60" version="1.1" xmlns="http://www.w3.org/2000/svg" xmlns:xlink="http://www.w3.org/1999/xlink">
    <title>logo-typo-cyan</title>
    <g id="Page-1" stroke="none" stroke-width="1" fill="none" fill-rule="evenodd">
        <g id="logo-typo-cyan" transform="translate(0.000000, 0.000000)" fill="#00B4F0" fill-rule="nonzero">
            <g id="Group" transform="translate(27.928000, -0.000000)">
                <path d="M72.131,34.1613728 L38.116,10.3443728 C33.863,7.36637284 28.706,6.22037284 23.587,7.12337284 C18.472,8.02537284 14.013,10.8653728 11.035,15.1193728 L5.589,22.8973728 L0,18.9853728 L5.446,11.2073728 C9.471,5.45937284 15.492,1.62337284 22.402,0.405372836 C29.313,-0.811627164 36.283,0.732372836 42.03,4.75737284 L76.045,28.5733728 L72.131,34.1613728 Z" id="Path"></path>
                <path d="M64.557,44.9773728 L30.567,21.1773728 C27.741,19.1963728 23.819,19.8853728 21.833,22.7183728 L16.407,30.4703728 L10.818,26.5583728 L16.246,18.8043728 C20.39,12.8933728 28.565,11.4503728 34.481,15.5893728 L68.471,39.3893728 L64.557,44.9773728 Z" id="Path"></path>
            </g>
            <g id="Group" transform="translate(0.000000, 14.918373)">
                <path d="M3.914,10.816 L37.929,34.633 C42.182,37.611 47.339,38.757 52.458,37.854 C57.573,36.952 62.032,34.112 65.01,29.858 L70.456,22.08 L76.045,25.992 L70.599,33.77 C66.574,39.518 60.553,43.354 53.643,44.572 C46.732,45.789 39.762,44.245 34.015,40.22 L-3.55271368e-15,16.404 L3.914,10.816 Z" id="Path"></path>
                <path d="M11.489,0 L45.479,23.8 C48.305,25.781 52.227,25.092 54.213,22.259 L59.639,14.507 L65.228,18.419 L59.8,26.173 C55.656,32.084 47.481,33.527 41.565,29.388 L7.575,5.588 L11.489,0 Z" id="Path"></path>
            </g>
        </g>
    </g>
</svg>